<svg width="25" height="27" viewBox="0 0 25 27" fill="none" xmlns="http://www.w3.org/2000/svg">
<path d="M4.75 1L1 6V23.5C1 24.163 1.26339 24.7989 1.73223 25.2678C2.20107 25.7366 2.83696 26 3.5 26H21C21.663 26 22.2989 25.7366 22.7678 25.2678C23.2366 24.7989 23.5 24.163 23.5 23.5V6L19.75 1H4.75Z" fill="#EFFFD9" stroke="#8BC63E" stroke-width="2" stroke-linecap="round" stroke-linejoin="round"/>
<path d="M1 6.17188H23.5H1Z" fill="#EFFFD9"/>
<path d="M1 6.17188H23.5" stroke="#8BC63E" stroke-width="2" stroke-linecap="round" stroke-linejoin="round"/>
<path d="M18.25 10.5C18.25 12.0913 17.6179 13.6174 16.4926 14.7426C15.3674 15.8679 13.8413 16.5 12.25 16.5C10.6587 16.5 9.13258 15.8679 8.00736 14.7426C6.88214 13.6174 6.25 12.0913 6.25 10.5" fill="#EFFFD9"/>
<path d="M18.25 10.5C18.25 12.0913 17.6179 13.6174 16.4926 14.7426C15.3674 15.8679 13.8413 16.5 12.25 16.5C10.6587 16.5 9.13258 15.8679 8.00736 14.7426C6.88214 13.6174 6.25 12.0913 6.25 10.5" stroke="#8BC63E" stroke-width="2" stroke-linecap="round" stroke-linejoin="round"/>
</svg>
