<svg width="24" height="24" viewBox="0 0 24 24" fill="none" xmlns="http://www.w3.org/2000/svg">
<path fill-rule="evenodd" clip-rule="evenodd" d="M20.4023 6.1175C20.3172 5.28195 19.6227 4.65039 18.7957 4.65039H4.26366L4.11714 4.6574C3.28158 4.74247 2.65002 5.43694 2.65002 6.26403V16.3733L2.65718 16.5213C2.71678 17.1011 3.06997 17.5892 3.5694 17.8288C3.667 18.5429 4.24728 19.1184 4.9902 19.1859L19.5779 20.8279L19.7434 20.8301L19.8861 20.8235C20.6514 20.748 21.279 20.1662 21.3551 19.4426L22.3033 9.29778L22.3103 9.14305C22.3054 8.75572 22.1735 8.39243 21.9339 8.11857C21.6667 7.77402 21.2941 7.56705 20.8492 7.52662L20.4093 7.47322V6.26403L20.4023 6.1175ZM20.1537 17.2411L20.2262 17.1167L20.0267 19.2471L20.0146 19.314L19.9927 19.3653C19.943 19.4476 19.8312 19.5106 19.7119 19.4997L6.30079 17.9869H18.7956L18.9422 17.9799L19.1106 17.954C19.5515 17.8631 19.9225 17.5994 20.1537 17.2411ZM19.0775 10.089H3.98186V16.3732C3.98186 16.4888 4.05426 16.5912 4.14226 16.6323L4.19648 16.6491L4.2637 16.6551H18.7957C18.9113 16.6551 19.0137 16.5827 19.0547 16.4947L19.0716 16.4404L19.0775 16.3732V10.089ZM18.8205 12.471C18.751 12.1218 18.4882 11.9164 18.1638 11.9164H13.1093L12.998 11.9256C12.6487 11.9951 12.4434 12.258 12.4434 12.5823V15.4255L12.4526 15.5368C12.5221 15.886 12.7849 16.0914 13.1093 16.0914H18.1638L18.2751 16.0822C18.6244 16.0127 18.8297 15.7498 18.8297 15.4255V12.5823L18.8205 12.471ZM20.4093 8.7624V15.1621L20.9798 9.07014C20.9884 9.02681 20.9626 8.93624 20.9166 8.87497L20.8924 8.8475L20.8401 8.80239L20.7556 8.79251L20.4093 8.7624ZM13.7752 13.2482H17.4979V14.7596H13.7752V13.2482ZM19.0775 7.56177H3.98186V8.75725H19.0775V7.56177ZM4.26366 5.98219H18.7956L18.8647 5.99093C18.9533 6.01372 19.0258 6.07915 19.0586 6.16349L19.0754 6.22993H3.98487L3.98779 6.19681L4.00465 6.14259C4.04567 6.05459 4.14808 5.98219 4.26366 5.98219Z" fill="#37474F"/>
</svg>
