<svg width="25" height="24" viewBox="0 0 25 24" fill="none" xmlns="http://www.w3.org/2000/svg">
<path d="M21.58 7.0001C21.4072 6.70072 21.1598 6.45123 20.8618 6.27597C20.5639 6.10071 20.2256 6.00566 19.88 6.0001H7.08L6.5 3.7401C6.4414 3.52194 6.31066 3.33004 6.12908 3.19567C5.94749 3.0613 5.72576 2.99236 5.5 3.0001H3.5C3.23478 3.0001 2.98043 3.10545 2.79289 3.29299C2.60536 3.48053 2.5 3.73488 2.5 4.0001C2.5 4.26531 2.60536 4.51967 2.79289 4.7072C2.98043 4.89474 3.23478 5.0001 3.5 5.0001H4.74L7.5 15.2601C7.5586 15.4783 7.68934 15.6702 7.87092 15.8045C8.05251 15.9389 8.27424 16.0078 8.5 16.0001H17.5C17.6847 15.9995 17.8656 15.9479 18.0227 15.8508C18.1798 15.7537 18.3069 15.615 18.39 15.4501L21.67 8.8901C21.8122 8.59211 21.8783 8.26357 21.8626 7.93378C21.8469 7.604 21.7498 7.28323 21.58 7.0001Z" fill="#ABABAB"/>
<path d="M8 21C8.82843 21 9.5 20.3284 9.5 19.5C9.5 18.6716 8.82843 18 8 18C7.17157 18 6.5 18.6716 6.5 19.5C6.5 20.3284 7.17157 21 8 21Z" fill="#ABABAB"/>
<path d="M18 21C18.8284 21 19.5 20.3284 19.5 19.5C19.5 18.6716 18.8284 18 18 18C17.1716 18 16.5 18.6716 16.5 19.5C16.5 20.3284 17.1716 21 18 21Z" fill="#ABABAB"/>
</svg>
