<svg width="22" height="22" viewBox="0 0 22 22" fill="none" xmlns="http://www.w3.org/2000/svg">
<path d="M19.3233 6.41623C19.1649 6.1418 18.938 5.9131 18.6649 5.75244C18.3918 5.59179 18.0817 5.50466 17.7649 5.49956H6.03159L5.49992 3.42789C5.4462 3.22791 5.32636 3.05201 5.15991 2.92884C4.99345 2.80566 4.7902 2.74247 4.58325 2.74956H2.74992C2.5068 2.74956 2.27365 2.84614 2.10174 3.01805C1.92983 3.18995 1.83325 3.42311 1.83325 3.66623C1.83325 3.90934 1.92983 4.1425 2.10174 4.31441C2.27365 4.48632 2.5068 4.58289 2.74992 4.58289H3.88658L6.41658 13.9879C6.4703 14.1879 6.59015 14.3638 6.7566 14.487C6.92305 14.6101 7.1263 14.6733 7.33325 14.6662H15.5833C15.7525 14.6657 15.9184 14.6183 16.0624 14.5293C16.2064 14.4404 16.3229 14.3132 16.3991 14.1621L19.4058 8.14873C19.5361 7.87558 19.5967 7.57441 19.5823 7.2721C19.5679 6.9698 19.4789 6.67576 19.3233 6.41623Z" fill="white"/>
<path d="M6.875 19.25C7.63439 19.25 8.25 18.6344 8.25 17.875C8.25 17.1156 7.63439 16.5 6.875 16.5C6.11561 16.5 5.5 17.1156 5.5 17.875C5.5 18.6344 6.11561 19.25 6.875 19.25Z" fill="white"/>
<path d="M16.0417 19.25C16.8011 19.25 17.4167 18.6344 17.4167 17.875C17.4167 17.1156 16.8011 16.5 16.0417 16.5C15.2824 16.5 14.6667 17.1156 14.6667 17.875C14.6667 18.6344 15.2824 19.25 16.0417 19.25Z" fill="white"/>
</svg>
