<svg width="24" height="24" viewBox="0 0 24 24" fill="none" xmlns="http://www.w3.org/2000/svg">
<path d="M21 6.0004H16V4.3304C15.9765 3.69022 15.7002 3.08546 15.2316 2.64869C14.7629 2.21193 14.1402 1.97879 13.5 2.0004H10.5C9.85975 1.97879 9.23706 2.21193 8.76843 2.64869C8.2998 3.08546 8.02346 3.69022 8 4.3304V6.0004H3C2.73478 6.0004 2.48043 6.10576 2.29289 6.2933C2.10536 6.48083 2 6.73519 2 7.0004C2 7.26562 2.10536 7.51997 2.29289 7.70751C2.48043 7.89504 2.73478 8.0004 3 8.0004H4V17.0004C4 17.796 4.43739 18.4378 5 19.0004C5.56261 19.563 6.20435 20.0004 7 20.0004H17C17.7956 20.0004 18.4374 19.563 19 19.0004C19.5626 18.4378 20 17.796 20 17.0004V8.0004H21C21.2652 8.0004 21.5196 7.89504 21.7071 7.70751C21.8946 7.51997 22 7.26562 22 7.0004C22 6.73519 21.8946 6.48083 21.7071 6.2933C21.5196 6.10576 21.2652 6.0004 21 6.0004ZM10 4.3304C10 4.1704 10.21 4.0004 10.5 4.0004H13.5C13.79 4.0004 14 4.1704 14 4.3304V6.0004H10V4.3304Z" fill="#ABABAB"/>
<rect x="6" y="22" width="12" height="2" rx="1" fill="#ABABAB"/>
</svg>
