<svg width="20" height="20" viewBox="0 0 20 20" fill="none" xmlns="http://www.w3.org/2000/svg">
<path fill-rule="evenodd" clip-rule="evenodd" d="M12.2834 2.69137L12.8643 3.27228H14.9098C15.3598 3.27228 15.728 3.64047 15.728 4.09047C15.728 4.54047 15.3598 4.90865 14.9098 4.90865H5.09162C4.64162 4.90865 4.27344 4.54047 4.27344 4.09047C4.27344 3.64047 4.64162 3.27228 5.09162 3.27228H7.13707L7.71798 2.69137C7.86526 2.5441 8.07798 2.4541 8.29071 2.4541H11.7107C11.9234 2.4541 12.1362 2.5441 12.2834 2.69137ZM5.09162 15.545C5.09162 16.445 5.82798 17.1814 6.72798 17.1814H13.2734C14.1734 17.1814 14.9098 16.445 14.9098 15.545V7.36319C14.9098 6.46319 14.1734 5.72683 13.2734 5.72683H6.72798C5.82798 5.72683 5.09162 6.46319 5.09162 7.36319V15.545ZM7.54617 7.36319H12.4553C12.9053 7.36319 13.2734 7.73138 13.2734 8.18138V14.7268C13.2734 15.1768 12.9053 15.545 12.4553 15.545H7.54617C7.09617 15.545 6.72798 15.1768 6.72798 14.7268V8.18138C6.72798 7.73138 7.09617 7.36319 7.54617 7.36319Z" fill="white"/>
<mask id="mask0_246_1434" style="mask-type:alpha" maskUnits="userSpaceOnUse" x="4" y="2" width="12" height="16">
<path fill-rule="evenodd" clip-rule="evenodd" d="M12.2834 2.69137L12.8643 3.27228H14.9098C15.3598 3.27228 15.728 3.64047 15.728 4.09047C15.728 4.54047 15.3598 4.90865 14.9098 4.90865H5.09162C4.64162 4.90865 4.27344 4.54047 4.27344 4.09047C4.27344 3.64047 4.64162 3.27228 5.09162 3.27228H7.13707L7.71798 2.69137C7.86526 2.5441 8.07798 2.4541 8.29071 2.4541H11.7107C11.9234 2.4541 12.1362 2.5441 12.2834 2.69137ZM5.09162 15.545C5.09162 16.445 5.82798 17.1814 6.72798 17.1814H13.2734C14.1734 17.1814 14.9098 16.445 14.9098 15.545V7.36319C14.9098 6.46319 14.1734 5.72683 13.2734 5.72683H6.72798C5.82798 5.72683 5.09162 6.46319 5.09162 7.36319V15.545ZM7.54617 7.36319H12.4553C12.9053 7.36319 13.2734 7.73138 13.2734 8.18138V14.7268C13.2734 15.1768 12.9053 15.545 12.4553 15.545H7.54617C7.09617 15.545 6.72798 15.1768 6.72798 14.7268V8.18138C6.72798 7.73138 7.09617 7.36319 7.54617 7.36319Z" fill="white"/>
</mask>
<g mask="url(#mask0_246_1434)">
</g>
</svg>
