<svg width="20" height="20" viewBox="0 0 20 20" fill="none" xmlns="http://www.w3.org/2000/svg">
<path fill-rule="evenodd" clip-rule="evenodd" d="M17.1272 5.76159C17.4463 5.4425 17.4463 4.92704 17.1272 4.60795L15.2127 2.69341C15.0598 2.5402 14.8523 2.4541 14.6358 2.4541C14.4194 2.4541 14.2119 2.5402 14.059 2.69341L12.5618 4.19068L15.6299 7.25886L17.1272 5.76159ZM2.63721 14.287V16.7743C2.63721 17.0034 2.81721 17.1834 3.0463 17.1834H5.53357C5.63994 17.1834 5.7463 17.1425 5.81994 17.0607L14.7545 8.13432L11.6863 5.06614L2.75993 13.9925C2.67812 14.0743 2.63721 14.1725 2.63721 14.287ZM12.439 8.13228L11.6863 7.37956L4.27357 14.7923V15.545H5.0263L12.439 8.13228Z" fill="white"/>
</svg>
