<svg width="25" height="24" viewBox="0 0 25 24" fill="none" xmlns="http://www.w3.org/2000/svg">
<path d="M12.5001 20.9995C12.3685 21.0003 12.238 20.9751 12.1162 20.9253C11.9944 20.8755 11.8836 20.8022 11.7901 20.7095L4.02012 12.9295C3.04548 11.9447 2.49878 10.6151 2.49878 9.22953C2.49878 7.84396 3.04548 6.51435 4.02012 5.52953C5.00238 4.55004 6.33295 4 7.72012 4C9.10729 4 10.4379 4.55004 11.4201 5.52953L12.5001 6.60953L13.5801 5.52953C14.5624 4.55004 15.8929 4 17.2801 4C18.6673 4 19.9979 4.55004 20.9801 5.52953C21.9548 6.51435 22.5015 7.84396 22.5015 9.22953C22.5015 10.6151 21.9548 11.9447 20.9801 12.9295L13.2101 20.7095C13.1167 20.8022 13.0059 20.8755 12.884 20.9253C12.7622 20.9751 12.6317 21.0003 12.5001 20.9995Z" fill="#ABABAB"/>
</svg>
