<svg width="28" height="23" viewBox="0 0 28 23" fill="none" xmlns="http://www.w3.org/2000/svg">
<path d="M26.298 12.068L23.136 5.743H18.392V2.581C18.3907 2.1621 18.2237 1.76073 17.9275 1.46452C17.6313 1.16831 17.2299 1.00132 16.811 1H2.581C2.1621 1.00132 1.76073 1.16831 1.46452 1.46452C1.16831 1.76073 1.00132 2.1621 1 2.581V15.23L2.581 16.816H4.586C4.30833 17.2967 4.1621 17.842 4.162 18.3971C4.1619 18.9522 4.30794 19.4975 4.58544 19.9783C4.86294 20.4591 5.26212 20.8583 5.74284 21.1359C6.22356 21.4135 6.76889 21.5596 7.324 21.5596C7.87911 21.5596 8.42444 21.4135 8.90516 21.1359C9.38588 20.8583 9.78506 20.4591 10.0626 19.9783C10.3401 19.4975 10.4861 18.9522 10.486 18.3971C10.4859 17.842 10.3397 17.2967 10.062 16.816H18.816C18.5383 17.2967 18.3921 17.842 18.392 18.3971C18.3919 18.9522 18.5379 19.4975 18.8154 19.9783C19.0929 20.4591 19.4921 20.8583 19.9728 21.1359C20.4536 21.4135 20.9989 21.5596 21.554 21.5596C22.1091 21.5596 22.6544 21.4135 23.1352 21.1359C23.6159 20.8583 24.0151 20.4591 24.2926 19.9783C24.5701 19.4975 24.7161 18.9522 24.716 18.3971C24.7159 17.842 24.5697 17.2967 24.292 16.816H26.297V12.068H26.298ZM18.392 12.068V7.325H21.67L24.042 12.068H18.392Z" stroke="#8BC63E"/>
</svg>
