<svg width="25" height="24" viewBox="0 0 25 24" fill="none" xmlns="http://www.w3.org/2000/svg">
<path d="M14.5 14H10.5V21H14.5V14Z" fill="#8BC63E"/>
<path d="M20.9201 10.1797L13.2101 2.2997C13.1172 2.20598 13.0066 2.13158 12.8847 2.08081C12.7628 2.03004 12.6321 2.00391 12.5001 2.00391C12.3681 2.00391 12.2374 2.03004 12.1155 2.08081C11.9937 2.13158 11.8831 2.20598 11.7901 2.2997L4.08012 10.1897C3.89355 10.3778 3.74621 10.601 3.64664 10.8465C3.54708 11.092 3.49727 11.3548 3.50012 11.6197V19.9997C3.49934 20.5116 3.69489 21.0043 4.04649 21.3764C4.39809 21.7485 4.87898 21.9715 5.39012 21.9997H8.50012V12.9997C8.50012 12.7345 8.60547 12.4801 8.79301 12.2926C8.98055 12.1051 9.2349 11.9997 9.50012 11.9997H15.5001C15.7653 11.9997 16.0197 12.1051 16.2072 12.2926C16.3948 12.4801 16.5001 12.7345 16.5001 12.9997V21.9997H19.6101C20.1213 21.9715 20.6021 21.7485 20.9537 21.3764C21.3053 21.0043 21.5009 20.5116 21.5001 19.9997V11.6197C21.5009 11.0826 21.2929 10.5663 20.9201 10.1797Z" fill="#8BC63E"/>
</svg>
