<svg width="24" height="24" viewBox="0 0 24 24" fill="none" xmlns="http://www.w3.org/2000/svg">
<path d="M10.4753 0.226074C11.9059 0.226074 13.2612 0.499015 14.5412 1.0449C15.8212 1.59078 16.9318 2.33431 17.8729 3.27549C18.8141 4.21666 19.5576 5.32725 20.1035 6.60725C20.6494 7.88725 20.9224 9.25196 20.9224 10.7014C20.9224 12.1508 20.6494 13.5061 20.1035 14.7673C19.5576 16.0284 18.8141 17.139 17.8729 18.099C16.9318 19.059 15.8212 19.812 14.5412 20.3578C13.2612 20.9037 11.9012 21.1767 10.4612 21.1767C9.02118 21.1767 7.67059 20.9037 6.40941 20.3578C5.14823 19.812 4.03765 19.059 3.07765 18.099C2.11765 17.139 1.36471 16.0284 0.818823 14.7673C0.272941 13.5061 0 12.1508 0 10.7014C0 9.25196 0.272941 7.88725 0.818823 6.60725C1.36471 5.32725 2.11765 4.21666 3.07765 3.27549C4.03765 2.33431 5.14823 1.59078 6.40941 1.0449C7.67059 0.499015 9.02588 0.226074 10.4753 0.226074ZM2.62588 10.7014C2.62588 11.6237 2.77647 12.499 3.07765 13.3273C3.37882 14.1555 3.80235 14.9084 4.34824 15.5861C4.89412 16.2637 5.53412 16.8378 6.26823 17.3084C7.00235 17.779 7.80235 18.1178 8.66823 18.3249C8.42353 17.9673 8.33882 17.6378 8.41412 17.3367C8.50823 16.9602 8.74353 16.5837 9.12 16.2073C9.49647 15.8308 9.91059 15.5531 10.3624 15.3743C10.8141 15.1955 11.2 14.9743 11.52 14.7108C11.84 14.4473 12 14.2308 12 14.0614C12 13.892 11.7835 13.6661 11.3506 13.3837C10.9176 13.1014 10.3718 12.8943 9.71294 12.7625C9.39294 12.6684 9.09176 12.5367 8.80941 12.3673C8.52706 12.1978 8.26353 12.0096 8.01882 11.8025C7.77412 11.5955 7.57647 11.379 7.42588 11.1531C7.27529 10.9273 7.16235 10.7014 7.08706 10.4755C6.99294 10.0237 6.82353 9.73196 6.57882 9.60019C6.33412 9.46843 6.07529 9.53902 5.80235 9.81196C5.52941 10.0849 5.27059 10.3155 5.02588 10.5037C4.78118 10.692 4.60235 10.7861 4.48941 10.7861C4.37647 10.7861 4.39529 10.5978 4.54588 10.2214C4.69647 9.8449 4.89412 9.38372 5.13882 8.83784C5.38353 8.29196 5.58118 7.79313 5.73176 7.34137C5.88235 6.8896 5.90118 6.62607 5.78823 6.55078C5.67529 6.47549 5.47765 6.39078 5.19529 6.29666C4.91294 6.20254 4.56471 6.17431 4.15059 6.21196C4.09412 6.21196 4.05647 6.20254 4.03765 6.18372C3.58588 6.84254 3.23765 7.54843 2.99294 8.30137C2.74823 9.05431 2.62588 9.85431 2.62588 10.7014ZM17.0824 14.9367C17.4588 14.3343 17.76 13.6755 17.9859 12.9602C18.2118 12.2449 18.3247 11.492 18.3247 10.7014C18.3247 10.0237 18.24 9.3649 18.0706 8.7249C17.9012 8.0849 17.6659 7.49196 17.3647 6.94607C17.3459 7.00254 17.2988 7.08725 17.2235 7.20019C17.0541 7.46372 16.8094 7.78372 16.4894 8.16019C16.1694 8.53666 15.8729 8.86137 15.6 9.13431C15.3271 9.40725 15.1247 9.54372 14.9929 9.54372C14.8612 9.54372 14.8424 9.41196 14.9365 9.14843C15.0306 8.8849 14.9553 8.68725 14.7106 8.55549C14.4659 8.42372 14.1082 8.4049 13.6376 8.49902C13.1671 8.59313 12.7247 8.73431 12.3106 8.92254C11.8965 9.11078 11.5765 9.29902 11.3506 9.48725C11.1247 9.67549 11.0306 9.89196 11.0682 10.1367C11.1059 10.3814 11.2 10.5978 11.3506 10.7861C11.5012 10.9743 11.7553 11.0684 12.1129 11.0684C12.4706 11.0684 12.7624 10.9743 12.9882 10.7861C13.2141 10.5978 13.4776 10.5037 13.7788 10.5037C14.08 10.5037 14.2494 10.5978 14.2871 10.7861C14.3247 10.9743 14.3435 11.2849 14.3435 11.7178C14.3435 12.1508 14.2212 12.6025 13.9765 13.0731C13.7882 13.5249 13.76 13.8825 13.8918 14.1461C14.0235 14.4096 14.2588 14.4943 14.5976 14.4002C14.9365 14.3061 15.3412 14.3061 15.8118 14.4002C16.2824 14.4943 16.7059 14.6731 17.0824 14.9367Z" fill="white"/>
</svg>
