<svg width="23" height="23" viewBox="0 0 23 23" fill="none" xmlns="http://www.w3.org/2000/svg">
<path fill-rule="evenodd" clip-rule="evenodd" d="M11.5001 1.91699C7.79133 1.91699 4.79175 4.91658 4.79175 8.62533C4.79175 12.6216 9.02758 18.132 10.7717 20.2307C11.1551 20.6907 11.8547 20.6907 12.238 20.2307C13.9726 18.132 18.2084 12.6216 18.2084 8.62533C18.2084 4.91658 15.2088 1.91699 11.5001 1.91699ZM6.70841 8.62533C6.70841 5.98033 8.85508 3.83366 11.5001 3.83366C14.1451 3.83366 16.2917 5.98033 16.2917 8.62533C16.2917 11.3853 13.5317 15.5157 11.5001 18.0937C9.50675 15.5349 6.70841 11.3566 6.70841 8.62533ZM9.10425 8.62533C9.10425 9.94783 10.1776 11.0212 11.5001 11.0212C12.8226 11.0212 13.8959 9.94783 13.8959 8.62533C13.8959 7.30283 12.8226 6.22949 11.5001 6.22949C10.1776 6.22949 9.10425 7.30283 9.10425 8.62533Z" fill="#37474F"/>
<mask id="mask0_30_1498" style="mask-type:alpha" maskUnits="userSpaceOnUse" x="4" y="1" width="15" height="20">
<path fill-rule="evenodd" clip-rule="evenodd" d="M11.5001 1.91699C7.79133 1.91699 4.79175 4.91658 4.79175 8.62533C4.79175 12.6216 9.02758 18.132 10.7717 20.2307C11.1551 20.6907 11.8547 20.6907 12.238 20.2307C13.9726 18.132 18.2084 12.6216 18.2084 8.62533C18.2084 4.91658 15.2088 1.91699 11.5001 1.91699ZM6.70841 8.62533C6.70841 5.98033 8.85508 3.83366 11.5001 3.83366C14.1451 3.83366 16.2917 5.98033 16.2917 8.62533C16.2917 11.3853 13.5317 15.5157 11.5001 18.0937C9.50675 15.5349 6.70841 11.3566 6.70841 8.62533ZM9.10425 8.62533C9.10425 9.94783 10.1776 11.0212 11.5001 11.0212C12.8226 11.0212 13.8959 9.94783 13.8959 8.62533C13.8959 7.30283 12.8226 6.22949 11.5001 6.22949C10.1776 6.22949 9.10425 7.30283 9.10425 8.62533Z" fill="white"/>
</mask>
<g mask="url(#mask0_30_1498)">
</g>
</svg>
