<svg width="22" height="23" viewBox="0 0 22 23" fill="none" xmlns="http://www.w3.org/2000/svg">
<path d="M18.3792 10.1807H3.62083C3.13989 10.1807 2.75 10.5725 2.75 11.056V11.1481C2.75 11.6315 3.13989 12.0234 3.62083 12.0234H18.3792C18.8601 12.0234 19.25 11.6315 19.25 11.1481V11.056C19.25 10.5725 18.8601 10.1807 18.3792 10.1807Z" fill="black"/>
<path d="M18.3792 14.7881H3.62083C3.13989 14.7881 2.75 15.18 2.75 15.6634V15.7555C2.75 16.2389 3.13989 16.6308 3.62083 16.6308H18.3792C18.8601 16.6308 19.25 16.2389 19.25 15.7555V15.6634C19.25 15.18 18.8601 14.7881 18.3792 14.7881Z" fill="black"/>
<path d="M18.3792 5.57422H3.62083C3.13989 5.57422 2.75 5.9661 2.75 6.44952V6.54165C2.75 7.02507 3.13989 7.41695 3.62083 7.41695H18.3792C18.8601 7.41695 19.25 7.02507 19.25 6.54165V6.44952C19.25 5.9661 18.8601 5.57422 18.3792 5.57422Z" fill="black"/>
</svg>
