<svg width="20" height="20" viewBox="0 0 20 20" fill="none" xmlns="http://www.w3.org/2000/svg">
<path d="M13.6123 1.66602C16.4357 1.66602 18.3332 3.64768 18.3332 6.59685V13.4027C18.3332 16.3518 16.4357 18.3327 13.6115 18.3327H6.38817C3.564 18.3327 1.6665 16.3518 1.6665 13.4027V6.59685C1.6665 3.64768 3.564 1.66602 6.38817 1.66602H13.6123ZM7.36734 7.83185C6.17234 7.83185 5.19984 8.80435 5.19984 9.99935C5.19984 11.1952 6.17234 12.1677 7.36734 12.1677C8.344 12.1677 9.16234 11.5143 9.43234 10.6243H11.1923V11.5427C11.1923 11.8877 11.4723 12.1677 11.8173 12.1677C12.1623 12.1677 12.4423 11.8877 12.4423 11.5427V10.6243H13.5507V11.5427C13.5507 11.8877 13.8307 12.1677 14.1757 12.1677C14.5207 12.1677 14.8007 11.8877 14.8007 11.5427V9.99935C14.8007 9.65435 14.5207 9.37435 14.1757 9.37435H9.43234C9.16234 8.48518 8.344 7.83185 7.36734 7.83185ZM7.36742 9.08176C7.87325 9.08176 8.28575 9.49343 8.28575 10.0001C8.28575 10.5059 7.87325 10.9176 7.36742 10.9176C6.86159 10.9176 6.44909 10.5059 6.44909 10.0001C6.44909 9.49343 6.86159 9.08176 7.36742 9.08176Z" fill="#8BC63E"/>
</svg>
