<svg width="210" height="208" viewBox="0 0 210 208" fill="none" xmlns="http://www.w3.org/2000/svg">
<path d="M124.862 114.377C126.089 108.905 129.435 102.907 132.651 98.3954C139.551 88.7194 143.085 96.6414 142.043 105.958C145.124 99.9415 149.45 94.6487 154.734 90.4312C160.017 86.2136 166.136 83.1676 172.687 81.4954C174.215 81.1164 175.969 80.8534 177.248 81.7714C179.084 83.0894 178.779 85.8844 178.094 88.0384C176.64 92.6021 174.379 96.8678 171.418 100.632C177.958 95.2034 186.089 92.0513 194.58 91.6524C197.843 91.5084 201.547 91.9964 203.507 94.6084C205.331 97.0394 204.945 100.59 203.393 103.208C201.841 105.826 199.342 107.708 196.907 109.529L177.055 124.357C180.683 123.193 184.502 122.017 188.24 122.746C191.978 123.475 195.5 126.829 195 130.606C194.536 134.113 191.06 136.333 187.828 137.775C182.985 139.816 178.019 141.55 172.959 142.967L142.801 152.1C135.101 154.432 124.94 153.724 123.862 143.952C122.85 134.744 122.847 123.363 124.862 114.377Z" fill="#FFDFBA"/>
<path d="M85.1386 114.377C83.9116 108.905 80.5656 102.907 77.3496 98.3953C70.4496 88.7193 66.9156 96.6413 67.9576 105.958C64.8753 99.9413 60.5488 94.6485 55.2651 90.4311C49.9813 86.2137 43.8611 83.1681 37.3106 81.4963C35.7826 81.1173 34.0286 80.8543 32.7486 81.7723C30.9126 83.0903 31.2186 85.8853 31.9026 88.0393C33.3562 92.6031 35.6174 96.8687 38.5786 100.633C32.0378 95.2044 23.9075 92.0523 15.4166 91.6533C12.1536 91.5093 8.44959 91.9973 6.48959 94.6093C4.66459 97.0403 5.05058 100.591 6.60358 103.209C8.15658 105.827 10.6546 107.709 13.0896 109.53L32.9416 124.358C29.3136 123.194 25.4946 122.018 21.7566 122.747C18.0186 123.476 14.4956 126.83 14.9966 130.607C15.4606 134.114 18.9366 136.334 22.1676 137.776C27.0104 139.816 31.9765 141.55 37.0366 142.968L67.1946 152.101C74.8946 154.433 85.0546 153.725 86.1336 143.953C87.1496 134.744 87.1536 123.363 85.1386 114.377Z" fill="#FFDFBA"/>
<path d="M165.537 59.8294L164.913 60.7814C162.204 64.9184 162.599 70.7284 162.254 75.4724C162.013 76.9867 161.903 78.5191 161.926 80.0524C161.811 81.6444 161.68 83.2364 161.565 84.8454C161.265 90.5016 160.469 96.1205 159.185 101.637C158.514 104.419 157.574 107.129 156.378 109.729C155.829 111.233 155.037 112.636 154.031 113.882C153.057 114.912 151.892 115.743 150.6 116.328C144.232 119.135 136.516 117.067 130.2 113.882C128.651 113.105 127.144 112.244 125.686 111.305C122.84 109.47 120.155 107.396 117.659 105.105C117.232 104.711 114.573 102.758 114.622 102.105L116.296 71.1144L116.69 63.7604C116.69 63.7604 117.674 64.4334 119.333 65.7954C128.401 73.4352 136.028 82.6359 141.854 92.9624C143.019 94.9974 144.155 97.1484 145.236 99.3964C148.575 89.233 152.572 79.2977 157.201 69.6534C158.519 66.9409 159.447 64.0561 159.959 61.0844L156.889 57.1944L158.662 54.9944L160.631 56.9814L165.178 53.3374L165.537 59.8294Z" fill="#C56E53"/>
<path d="M164.274 61.6367C164.481 61.5929 164.673 61.4963 164.832 61.3561C164.991 61.2159 165.111 61.0369 165.18 60.8367L173.148 38.0777C173.212 37.8931 173.232 37.6958 173.206 37.502C173.179 37.3082 173.107 37.1235 172.995 36.9632C172.883 36.8029 172.734 36.6715 172.561 36.58C172.388 36.4884 172.196 36.4393 172.001 36.4367L163.038 36.3097C162.772 36.3064 162.513 36.3886 162.298 36.5442C162.083 36.6998 161.923 36.9205 161.844 37.1737L155.293 58.0497C155.243 58.2085 155.226 58.3759 155.243 58.5415C155.26 58.7071 155.311 58.8674 155.393 59.0127C155.473 59.159 155.582 59.2876 155.713 59.3907C155.844 59.4938 155.994 59.5693 156.156 59.6127L163.703 61.6227C163.89 61.6724 164.087 61.6772 164.278 61.6367H164.274Z" fill="#223A42"/>
<path d="M163.675 61.2494C163.882 61.2059 164.074 61.1093 164.233 60.9691C164.392 60.8288 164.512 60.6498 164.581 60.4494L172.549 37.6904C172.613 37.5059 172.633 37.3087 172.607 37.115C172.58 36.9213 172.508 36.7366 172.396 36.5764C172.284 36.4161 172.136 36.2847 171.963 36.1931C171.79 36.1014 171.598 36.0522 171.403 36.0494L162.439 35.9234C162.173 35.9202 161.914 36.0024 161.699 36.158C161.484 36.3136 161.324 36.5343 161.245 36.7874L154.694 57.6634C154.644 57.8223 154.627 57.9897 154.644 58.1553C154.661 58.3208 154.712 58.4812 154.794 58.6264C154.874 58.7727 154.983 58.9012 155.114 59.0043C155.245 59.1074 155.396 59.183 155.557 59.2264L163.104 61.2364C163.291 61.2865 163.489 61.2913 163.679 61.2504L163.675 61.2494Z" fill="#2C4248"/>
<path d="M155.175 57.8143L161.726 36.9383C161.772 36.7886 161.866 36.658 161.993 36.566C162.12 36.4739 162.274 36.4253 162.431 36.4273L171.395 36.5543C171.51 36.5559 171.623 36.585 171.726 36.6391C171.828 36.6931 171.915 36.7707 171.982 36.8653C172.048 36.9599 172.091 37.0689 172.106 37.1833C172.122 37.2977 172.111 37.4143 172.073 37.5233L164.104 60.2823C164.043 60.4556 163.919 60.5997 163.757 60.6857C163.595 60.7717 163.406 60.7934 163.229 60.7463L155.682 58.7363C155.587 58.711 155.498 58.6667 155.42 58.6061C155.343 58.5455 155.278 58.4698 155.231 58.3836C155.184 58.2975 155.154 58.2026 155.145 58.1047C155.135 58.0069 155.145 57.9081 155.175 57.8143Z" fill="#B5FDFF"/>
<path d="M154.706 53.9215C154.74 53.7871 154.805 53.6625 154.896 53.5573C154.986 53.4522 155.1 53.3695 155.228 53.3155L157.14 52.3805C157.225 52.3272 157.326 52.3027 157.427 52.3105C157.488 52.3305 157.544 52.3653 157.588 52.4119C157.633 52.4585 157.666 52.5153 157.684 52.5775C157.74 52.7243 157.765 52.8814 157.757 53.0385C157.749 53.1957 157.708 53.3493 157.637 53.4895C157.267 54.2065 156.288 54.4375 155.72 54.9675C155.462 55.2237 155.28 55.5453 155.193 55.8975C155.133 55.7063 155.06 55.5192 154.976 55.3375C154.759 54.8986 154.666 54.4092 154.706 53.9215Z" fill="#C56E53"/>
<path d="M167.809 55.1424C168.042 54.9446 168.253 54.7231 168.441 54.4814C168.816 53.9964 169.155 53.4843 169.456 52.9494C169.576 52.7826 169.659 52.5911 169.697 52.3887C169.736 52.1863 169.729 51.9779 169.677 51.7784C169.377 51.0544 168.613 50.8424 167.994 50.4974C167.594 50.2744 167.218 50.0104 166.814 49.7974C166.363 49.5422 165.889 49.3315 165.398 49.1684C165.353 49.1493 165.303 49.1472 165.257 49.1624C165.23 49.1817 165.21 49.2077 165.198 49.2376C165.186 49.2676 165.182 49.3004 165.187 49.3324C165.211 49.5183 165.273 49.6974 165.367 49.8595C165.461 50.0215 165.587 50.1632 165.737 50.2764C166.082 50.5946 166.462 50.8727 166.871 51.1054C167.258 51.3264 167.988 51.6304 168.095 52.1124C168.117 52.2347 168.108 52.3603 168.07 52.4784C167.912 53.0815 167.716 53.6741 167.483 54.2524C167.383 54.5031 167.303 54.7608 167.242 55.0234C167.228 55.0804 167.142 55.6364 167.124 55.6454C167.363 55.4941 167.592 55.326 167.809 55.1424Z" fill="#C56E53"/>
<path d="M167.393 56.3265C167.626 56.1287 167.837 55.9071 168.025 55.6655C168.4 55.1804 168.739 54.6684 169.039 54.1335C169.159 53.9666 169.242 53.7752 169.28 53.5728C169.319 53.3703 169.312 53.1619 169.261 52.9624C168.961 52.2384 168.196 52.0265 167.578 51.6815C167.178 51.4585 166.802 51.1945 166.398 50.9815C165.947 50.7264 165.473 50.5157 164.982 50.3525C164.937 50.3334 164.887 50.3313 164.841 50.3465C164.815 50.3656 164.794 50.3914 164.782 50.4212C164.77 50.451 164.766 50.4836 164.771 50.5155C164.795 50.7016 164.856 50.881 164.951 51.0432C165.045 51.2055 165.171 51.3473 165.321 51.4605C165.666 51.7788 166.047 52.0572 166.455 52.2905C166.842 52.5105 167.573 52.8155 167.68 53.2965C167.701 53.4188 167.692 53.5444 167.654 53.6625C167.496 54.2656 167.3 54.8582 167.067 55.4365C166.968 55.6872 166.887 55.9449 166.826 56.2075C166.812 56.2645 166.726 56.8205 166.708 56.8295C166.948 56.6782 167.176 56.5101 167.393 56.3265Z" fill="#C56E53"/>
<path d="M166.872 57.6614C167.105 57.4637 167.316 57.2421 167.504 57.0004C167.879 56.5151 168.218 56.0027 168.518 55.4674C168.638 55.3006 168.721 55.1092 168.759 54.9068C168.798 54.7043 168.791 54.4959 168.74 54.2964C168.44 53.5724 167.675 53.3604 167.057 53.0154C166.657 52.7924 166.281 52.5284 165.877 52.3154C165.426 52.0606 164.952 51.8499 164.461 51.6864C164.416 51.6674 164.366 51.6652 164.32 51.6804C164.293 51.6995 164.273 51.7253 164.261 51.7551C164.248 51.7849 164.245 51.8176 164.25 51.8494C164.274 52.0354 164.335 52.2146 164.43 52.3767C164.524 52.5388 164.65 52.6804 164.8 52.7934C165.145 53.1122 165.525 53.3906 165.934 53.6234C166.321 53.8434 167.052 54.1484 167.159 54.6294C167.18 54.7521 167.171 54.878 167.133 54.9964C166.975 55.5993 166.778 56.1914 166.546 56.7694C166.446 57.0205 166.366 57.2786 166.305 57.5414C166.291 57.5984 166.205 58.1544 166.187 58.1624C166.426 58.0118 166.655 57.8444 166.872 57.6614Z" fill="#C56E53"/>
<path d="M166.25 59.1702C166.483 58.9724 166.694 58.7509 166.882 58.5092C167.257 58.0242 167.596 57.5121 167.896 56.9772C168.016 56.8104 168.099 56.6189 168.137 56.4165C168.176 56.2141 168.169 56.0057 168.118 55.8062C167.818 55.0822 167.053 54.8702 166.435 54.5252C166.035 54.3022 165.659 54.0382 165.255 53.8252C164.804 53.5701 164.33 53.3595 163.839 53.1962C163.794 53.1771 163.744 53.175 163.698 53.1902C163.671 53.2095 163.651 53.2355 163.639 53.2655C163.627 53.2954 163.623 53.3282 163.628 53.3602C163.652 53.5462 163.713 53.7254 163.808 53.8874C163.902 54.0495 164.028 54.1912 164.178 54.3042C164.523 54.6224 164.903 54.9005 165.312 55.1332C165.699 55.3542 166.43 55.6582 166.537 56.1402C166.558 56.2625 166.549 56.3881 166.511 56.5062C166.353 57.1094 166.157 57.7019 165.924 58.2802C165.824 58.531 165.744 58.7887 165.683 59.0512C165.669 59.1082 165.583 59.6642 165.565 59.6732C165.805 59.5222 166.034 59.3541 166.25 59.1702Z" fill="#C56E53"/>
<path d="M141.852 92.9534C141.113 97.2374 138.585 104.788 130.198 113.881C128.648 113.104 127.141 112.243 125.684 111.304C122.837 109.469 120.152 107.395 117.657 105.104C117.23 104.71 114.571 102.757 114.62 102.104L116.294 71.1134L118.428 65.4834C118.733 65.5723 119.033 65.6764 119.328 65.7954C128.395 73.4323 136.023 82.6298 141.852 92.9534Z" fill="#A1424B"/>
<path d="M116.794 63.6836C116.794 63.6836 128.494 66.6756 140.465 87.3416C140.465 87.3416 141.833 98.8996 126.444 114.289L104.421 96.2326L116.794 63.6836Z" fill="#5D1931"/>
<path d="M123.483 147.069C123.694 147.791 123.696 148.558 123.49 149.282C123.284 150.006 122.878 150.657 122.319 151.16C118.209 155.215 109.244 156.597 103.807 157.434C96.1325 158.598 88.3315 158.561 80.5845 158.507C83.8395 147.76 86.9125 138.722 84.8035 127.647C84.6945 127.047 84.5845 126.465 84.4395 125.883C81.6025 113.936 74.8015 103.916 68.2915 93.7326C68.2735 93.7326 67.8915 86.8226 67.4915 79.9486C67.3023 75.4299 67.7429 70.9068 68.8005 66.5095C68.8005 66.5095 91.7315 62.4365 94.8225 61.8545C97.9325 61.2725 116.79 63.6916 116.79 63.6916C123.9 73.7476 126.264 86.1495 126.355 98.1155C126.374 107.032 125.41 115.923 123.482 124.629C122.555 129.029 120.7 133.122 120.282 137.629C119.991 140.811 122.701 143.958 123.446 146.867C123.467 146.932 123.479 147 123.483 147.069Z" fill="#812024"/>
<path d="M122.322 151.159C118.212 155.214 109.247 156.596 103.81 157.433C96.1365 158.597 88.3355 158.561 80.5885 158.506C83.8435 147.759 86.9165 138.721 84.8075 127.646C84.6985 127.046 84.5885 126.464 84.4435 125.882C81.6065 113.935 74.8055 103.915 68.2955 93.7323C68.2775 93.7323 67.8955 86.8223 67.4955 79.9483C68.0806 79.3112 68.7263 78.7324 69.4235 78.2203C73.1504 75.7435 77.6344 74.6675 82.0795 75.1833C87.5705 75.9833 88.9075 91.5983 89.6915 95.8723C91.0101 102.992 91.7721 110.204 91.9705 117.442C92.1375 123.969 93.1225 130.883 91.9545 137.374C91.1175 141.993 92.5365 145.594 96.8825 148.23C100.475 150.21 104.589 151.035 108.666 150.594C113.522 150.248 118.541 147.994 123.45 147.066H123.487C123.699 147.789 123.702 148.557 123.495 149.281C123.289 150.005 122.883 150.656 122.322 151.159Z" fill="#5D1931"/>
<path d="M99.7435 60.2896L109.031 62.7756C109.031 62.7756 113.565 72.4896 104.058 72.7316C93.5485 72.9986 83.8105 63.8376 83.8105 63.8376L99.7435 60.2896Z" fill="#C56E53"/>
<path d="M90.8295 49.3375C91.1345 51.4215 91.3605 53.6375 91.5295 55.7165C91.9145 60.5545 91.9735 64.6435 91.9735 64.6435C100.834 69.5885 105.639 63.9435 105.639 63.9435C104.823 61.9263 104.14 59.8575 103.595 57.7505C102.819 55.016 102.498 52.1722 102.646 49.3335L90.8295 49.3375Z" fill="#C56E53"/>
<path d="M90.8295 49.3374C91.1345 51.4214 91.3605 53.6374 91.5295 55.7164C95.2554 57.5924 99.4601 58.3026 103.595 57.7544C102.819 55.0199 102.498 52.1761 102.646 49.3374H90.8295Z" fill="#A1424B"/>
<path d="M114.274 50.1617C114.274 50.1617 104.967 61.1917 89.7835 52.8367C74.6835 44.5307 76.5525 18.3497 78.2605 11.5367C78.2775 11.4877 78.2775 11.4547 78.2935 11.4057C78.3119 11.3752 78.3232 11.3411 78.3265 11.3057C79.4095 7.36666 84.4155 2.13066 96.1855 2.32766C100.097 2.34971 103.883 3.70458 106.92 6.16866C107.22 6.41566 107.495 6.66066 107.774 6.92366C108.405 7.50903 108.987 8.14443 109.514 8.82366C111.418 11.2273 112.682 14.0732 113.19 17.0967C113.294 17.733 113.366 18.3741 113.404 19.0177C113.437 19.2967 113.453 19.5597 113.469 19.8387L114.192 47.2387L114.257 49.0767L114.274 50.1617Z" fill="#C56E53"/>
<path d="M114.274 50.1653C114.274 50.1653 104.967 61.1953 89.7835 52.8403C74.6835 44.5343 76.5525 18.3533 78.2605 11.5403C78.2775 11.4913 78.2775 11.4583 78.2935 11.4093C78.3119 11.3789 78.3232 11.3447 78.3265 11.3093L101.667 7.90931C103.754 8.1329 105.863 7.79275 107.773 6.92432C108.404 7.50968 108.986 8.14508 109.513 8.82431C111.417 11.228 112.681 14.0739 113.189 17.0973C113.293 17.7336 113.365 18.3748 113.403 19.0183C112.909 19.0035 112.423 18.8864 111.975 18.6743C111.4 18.3943 110.892 17.9683 110.301 17.7223C109.768 17.5315 109.209 17.4209 108.643 17.3943C105.13 17.1483 101.519 17.8373 98.1545 16.8523C96.9439 16.4377 95.7598 15.9498 94.6085 15.3913C94.478 15.3207 94.327 15.2978 94.1815 15.3263C94.0335 15.3593 93.9515 15.5063 93.8695 15.6543C92.3755 18.2803 91.2765 21.1543 89.4545 23.5663C88.7115 24.4391 88.0425 25.3724 87.4545 26.3563C86.1545 28.9173 86.7815 31.9863 87.4375 34.7773L89.2595 42.5093C89.3085 42.7883 89.3745 43.1163 89.1775 43.3093C89.0295 43.4893 88.7675 43.5093 88.5535 43.6213C87.8145 43.9993 90.4245 47.7743 90.8675 48.3483C92.0392 49.8592 93.5012 51.1206 95.1675 52.0583C97.2347 53.1855 99.5394 53.8073 101.893 53.873C104.247 53.9387 106.583 53.4464 108.709 52.4363C110.687 51.5412 112.55 50.4114 114.257 49.0713L114.274 50.1653Z" fill="#A1424B"/>
<path d="M112.071 16.4266C111.727 16.2369 111.362 16.0863 110.983 15.9775C109.336 15.6413 107.647 15.5533 105.973 15.7165C102.432 15.7864 98.9045 15.2389 95.5505 14.0985C94.5593 13.8334 93.6533 13.3167 92.9205 12.5985C91.4677 17.2882 89.0027 21.6015 85.6995 25.2336C85.0499 25.8519 84.5141 26.5797 84.1165 27.3835C83.3955 29.1595 85.0165 30.1726 85.4845 31.7365C85.9525 33.3005 86.3725 34.8715 86.8175 36.4365C87.4081 38.5179 87.9985 40.5992 88.5885 42.6805L87.0125 42.7896C87.0125 42.7896 82.3645 33.7325 81.4705 34.8895C80.5765 36.0466 77.3015 41.5126 85.9055 46.1535C86.2345 46.4825 86.1725 49.8096 86.0405 50.2225C84.6106 49.4298 83.2896 48.455 82.1105 47.3225C80.7633 46.2813 79.5346 45.0952 78.4465 43.7855C76.5116 41.3418 74.9506 38.6241 73.8145 35.7215C71.5754 29.9368 70.5607 23.7505 70.8345 17.5536C70.835 14.5474 71.3977 11.5679 72.4935 8.76855C72.6546 8.33722 72.9023 7.94347 73.2215 7.61155C73.5751 7.31852 73.9828 7.09769 74.4215 6.96155C75.5931 6.52277 76.7966 6.17442 78.0215 5.91955C78.2395 5.13896 78.6138 4.41076 79.1215 3.77906C79.6293 3.14736 80.26 2.62532 80.9755 2.24455C82.4107 1.49119 83.9652 0.991182 85.5705 0.766549C86.7005 0.563215 87.8368 0.402883 88.9795 0.28555C95.6715 -0.39945 103.298 -0.12945 108.779 4.24355C110.995 5.98433 112.701 8.29023 113.716 10.9185C114.217 12.252 114.516 13.6528 114.602 15.0745C114.69 16.5275 114.138 18.0185 114.224 19.4095C114.144 18.7718 113.905 18.1644 113.529 17.6431C113.153 17.1219 112.652 16.7036 112.071 16.4266Z" fill="#201642"/>
<path d="M104.308 31.4216C105.308 30.7216 107.308 33.9476 107.742 34.5626C108.786 36.0446 109.637 38.1846 107.365 39.0056C106.837 39.2399 106.261 39.3446 105.685 39.3109C105.109 39.2771 104.549 39.1059 104.053 38.8116C103.044 38.0186 103.215 36.4116 103.343 35.2946C103.465 34.2526 103.354 32.0876 104.308 31.4216Z" fill="#A1424B"/>
<path d="M94.8295 33.0507C94.8105 31.2907 95.3485 30.0117 96.0295 30.1947C96.7105 30.3777 97.2795 31.9537 97.2975 33.7147C97.3155 35.4757 96.7785 36.7537 96.0975 36.5707C95.4165 36.3877 94.8475 34.8117 94.8295 33.0507Z" fill="#201642"/>
<path d="M111.187 29.1205C111.869 29.3035 112.436 30.8795 112.455 32.6395C112.474 34.3995 111.936 35.6785 111.255 35.4955C110.574 35.3125 110.006 33.7365 109.988 31.9765C109.97 30.2165 110.505 28.9375 111.187 29.1205Z" fill="#201642"/>
<path d="M99.0165 28.9157C99.0165 28.9157 94.1435 26.5557 90.9885 29.6337L87.8335 26.7097C87.8335 26.7097 94.1865 21.9397 99.0165 28.9157Z" fill="#201642"/>
<path d="M107.332 28.3854C107.332 28.3854 111.617 26.0254 113.577 29.1034L114.277 26.1794C114.277 26.1794 110.332 21.4094 107.332 28.3854Z" fill="#201642"/>
<path d="M108.151 48.7323C107.757 48.8473 107.38 48.9623 107.019 49.0443C96.2345 51.7693 98.5985 41.9863 98.5985 41.9863C101.212 42.8523 104.004 43.0331 106.708 42.5113C107.203 42.4037 107.683 42.2326 108.135 42.0023C106.608 44.2683 108.151 48.7323 108.151 48.7323Z" fill="#9B4273"/>
<path d="M107.019 49.0443C96.2335 51.7693 98.5975 41.9863 98.5975 41.9863C101.211 42.8523 104.003 43.0331 106.707 42.5113L107.019 49.0443Z" fill="white"/>
<path d="M138.603 84.9096C137.053 83.8695 135.18 83.4226 133.326 83.6506C128.742 83.9506 124.461 86.1656 119.862 86.2936C119.414 86.3564 118.957 86.3137 118.528 86.1689C118.099 86.0241 117.709 85.7813 117.39 85.4596C116.998 84.8445 116.775 84.1372 116.742 83.4086C116.285 80.1331 115.49 76.9136 114.37 73.8016C113.462 71.2806 112.198 68.6706 110.015 67.4016C107.832 66.1326 104.608 67.0346 104.199 69.6396C103.899 71.5806 105.171 73.4336 105.699 75.3636C106.848 79.5786 104.38 83.6086 102.821 87.5076C101.973 89.6428 101.382 91.8715 101.061 94.1466C100.8 95.9746 101.404 98.3906 100.088 99.7306C99.9199 99.9009 99.7365 100.056 99.5405 100.194L99.5345 100.168C99.3363 99.4656 98.8679 98.8708 98.2318 98.5136C97.5957 98.1565 96.844 98.0662 96.1415 98.2626L86.0115 100.696C85.2965 100.84 84.668 101.262 84.2637 101.869C83.8593 102.476 83.7122 103.218 83.8545 103.934L89.7775 128.595C89.9756 129.296 90.4439 129.891 91.0797 130.248C91.7155 130.606 92.4669 130.696 93.1695 130.501L103.299 128.068C104.014 127.923 104.643 127.501 105.047 126.894C105.452 126.287 105.599 125.545 105.456 124.83L105.412 124.646C108.003 124.432 110.585 124.107 113.175 123.703C119.033 122.79 124.83 121.517 130.531 119.893C133.554 119.032 136.655 118.008 138.931 115.719C139.415 115.277 139.784 114.724 140.003 114.107C140.498 112.498 139.46 110.765 138.483 109.362C139.135 109.048 139.694 108.572 140.108 107.98C140.522 107.387 140.777 106.698 140.847 105.979C140.927 105.221 140.834 104.456 140.574 103.74C140.314 103.024 139.894 102.376 139.347 101.847C140.123 100.964 140.694 99.9201 141.019 98.7906C141.179 98.1991 141.19 97.5775 141.052 96.9807C140.913 96.384 140.63 95.8306 140.226 95.3696C139.81 95.0639 139.435 94.7063 139.109 94.3056C138.943 93.9556 138.866 93.5694 138.887 93.1822C138.907 92.7951 139.024 92.4191 139.226 92.0886C139.574 91.4256 140.08 90.8716 140.367 90.1706C140.654 89.219 140.639 88.2017 140.323 87.2594C140.007 86.317 139.406 85.496 138.603 84.9096Z" fill="#FFB82C"/>
<path d="M96.8005 115.2C96.539 115.874 96.1081 116.469 95.5494 116.927C94.9906 117.386 94.3229 117.693 93.611 117.818C92.899 117.943 92.1668 117.882 91.4852 117.641C90.8036 117.4 90.1958 116.987 89.7204 116.443C88.3514 114.87 88.5994 117.043 88.8644 118.002C89.5724 120.56 90.3361 123.101 91.1554 125.626C91.2837 126.189 91.5679 126.706 91.9755 127.116C92.4663 127.451 93.0479 127.629 93.6424 127.625C95.0352 127.736 96.4352 127.722 97.8254 127.583C98.4976 127.582 99.163 127.448 99.7833 127.189C100.404 126.93 100.966 126.551 101.439 126.074C102.239 125.054 102.26 123.604 102.953 122.506C105.734 122.676 108.52 122.271 111.136 121.315C111.633 121.189 112.099 120.966 112.507 120.658C112.916 120.349 113.259 119.963 113.515 119.52C113.622 119.299 113.657 119.051 113.615 118.81C113.549 118.575 113.422 118.363 113.246 118.194C111.393 116.188 108.155 116.373 105.807 114.978C103.295 113.486 102.212 110.49 100.757 107.957C100.431 107.316 99.9777 106.748 99.4244 106.289C99.1454 106.062 98.8137 105.91 98.4602 105.845C98.1066 105.781 97.7425 105.806 97.4014 105.92C96.0644 106.461 96.8295 108.611 96.9105 109.606C97.0565 111.354 97.4515 113.515 96.8005 115.2Z" fill="#FF8A05"/>
<path d="M109.321 77.5917C109.753 78.5862 110.127 79.6049 110.441 80.6427C110.797 82.1316 110.825 83.6798 110.524 85.1807C110.324 86.2477 110.065 87.5337 110.865 88.2667C111.216 88.5497 111.641 88.7267 112.088 88.7767C112.761 88.9402 113.466 88.9116 114.123 88.6944C114.781 88.4771 115.364 88.0798 115.806 87.5477C116.323 86.5604 116.483 85.4253 116.259 84.3337C115.765 79.5047 114.746 74.5767 112.028 70.4947C111.691 69.9346 111.278 69.4238 110.801 68.9767C110.562 68.7541 110.279 68.5831 109.97 68.4742C109.662 68.3653 109.334 68.3209 109.007 68.3437C105.399 68.7847 108.675 75.9027 109.321 77.5917Z" fill="#FF8A05"/>
<path d="M126.479 89.1017C125.276 89.4923 124.227 90.2519 123.479 91.2727C123.192 91.8985 123.046 92.5799 123.052 93.2684C123.058 93.9569 123.215 94.6357 123.512 95.2567C124.012 96.5367 124.768 97.7147 125.154 99.0337C125.629 100.683 125.499 102.448 124.787 104.01C124.1 105.502 122.904 106.748 122.426 108.32C121.916 110 122.291 111.857 121.754 113.529C121.3 114.942 120.209 116.183 120.213 117.667C120.201 117.866 120.231 118.066 120.3 118.253C120.369 118.441 120.475 118.612 120.613 118.757C120.813 118.918 121.051 119.026 121.303 119.07C122.409 119.229 123.537 119.122 124.593 118.757C127.757 117.966 130.852 116.926 133.851 115.647C134.579 115.363 135.255 114.96 135.851 114.455C136.148 114.199 136.385 113.883 136.546 113.526C136.707 113.17 136.789 112.783 136.785 112.392C136.716 111.292 135.774 110.392 135.746 109.292C135.713 107.992 136.902 107.064 137.769 106.101C138.061 105.815 138.268 105.455 138.369 105.06C138.384 104.322 138.114 103.608 137.613 103.066C137.158 102.465 136.842 101.77 136.687 101.032C136.615 100.662 136.639 100.279 136.757 99.9214C136.875 99.5634 137.083 99.2419 137.361 98.9877C137.665 98.8112 137.943 98.5942 138.188 98.3427C138.699 97.6257 137.981 96.7097 137.46 96.0007C136.969 95.3228 136.629 94.5467 136.465 93.7255C136.301 92.9043 136.317 92.0574 136.51 91.2427C136.764 90.6031 136.867 89.9135 136.81 89.2277C136.667 88.8294 136.435 88.4692 136.131 88.1745C135.827 87.8799 135.46 87.6586 135.057 87.5277C133.822 86.8417 132.364 86.6727 131.004 87.0577C129.473 87.6467 127.979 88.4377 126.479 89.1017Z" fill="#FF8A05"/>
<path d="M104.83 71.3586C105.081 72.9156 105.93 74.3186 106.256 75.8586C106.885 78.8206 105.539 81.8336 105.485 84.8586C105.444 85.3515 105.535 85.8462 105.748 86.2926C105.859 86.5127 106.038 86.6915 106.258 86.8028C106.478 86.9142 106.728 86.9523 106.972 86.9116C107.278 86.8022 107.543 86.6002 107.731 86.3336C109.343 84.3866 109.889 81.7806 110.155 79.2666C110.424 77.2874 110.37 75.2776 109.996 73.3156C109.619 71.6276 108.77 69.4676 107.186 68.5426C105.268 67.4276 104.579 69.7936 104.83 71.3586Z" fill="#FFD540"/>
<path d="M132.655 89.5556C132.957 89.7582 133.27 89.9444 133.591 90.1136C134.203 90.4291 134.871 90.6183 135.557 90.6698C136.243 90.7214 136.933 90.6342 137.584 90.4136C140.092 89.4136 138.563 87.5516 137.476 86.0136C136.966 85.2868 136.198 84.782 135.328 84.6021C134.458 84.4222 133.552 84.5808 132.795 85.0456C132.225 85.3531 131.784 85.8563 131.555 86.4626C131.326 87.0688 131.323 87.7375 131.547 88.3456C131.801 88.8411 132.184 89.2591 132.655 89.5556Z" fill="#FFD540"/>
<path d="M134.834 96.8188C134.584 97.0464 134.417 97.3509 134.361 97.6838C134.304 98.0168 134.36 98.3593 134.52 98.6568C134.702 98.867 134.927 99.0353 135.181 99.1498C135.763 99.5 136.394 99.7637 137.053 99.9328C137.383 100.015 137.727 100.029 138.062 99.9723C138.398 99.9158 138.718 99.7907 139.004 99.6048C141.615 97.7018 137.188 94.2378 134.834 96.8188Z" fill="#FFD540"/>
<path d="M89.2115 100.697C87.1945 101.297 85.2115 102.89 85.1885 104.997C85.2642 106.067 85.5943 107.104 86.1515 108.02L88.2595 112.191C88.5345 112.735 88.9765 113.369 89.5765 113.266C89.7777 113.203 89.9594 113.089 90.1044 112.936C90.2495 112.783 90.3531 112.595 90.4055 112.39C90.7099 111.229 90.8257 110.026 90.7485 108.828C90.7139 108.229 90.8108 107.629 91.0324 107.071C91.254 106.513 91.595 106.01 92.0315 105.597C92.9102 105.076 93.9308 104.844 94.9485 104.935C96.3895 104.916 98.6925 105.714 98.7765 103.613C98.8395 102.04 97.8835 100.008 96.2685 99.5634C95.3935 99.3224 94.3095 99.9154 93.4135 100.031C91.9974 100.142 90.5923 100.365 89.2115 100.697Z" fill="#FFD540"/>
<path d="M122.612 115.795C121.571 116.586 119.864 116.701 118.644 117.066C116.75 117.632 114.858 118.203 112.968 118.779C105.176 121.14 97.4785 123.413 89.5105 125.185C87.8335 117.15 85.7105 108.847 85.2565 100.693C84.8815 93.9997 83.0165 86.5487 78.5285 81.3207C77.6369 80.3028 76.5184 79.5089 75.2633 79.003C74.0083 78.4972 72.6518 78.2936 71.3035 78.4087C64.3695 79.1817 59.6975 85.8807 60.4275 92.5087C61.187 100.346 62.5094 108.118 64.3845 115.766C65.3025 119.355 66.2202 122.944 67.1375 126.533C68.6195 132.333 68.2085 142.199 76.3165 142.04C79.1495 141.984 81.8165 140.775 84.3905 139.588L109.612 127.958C113.276 126.269 117.361 125.448 121.201 124.071C121.686 123.834 122.237 123.769 122.764 123.886C123.15 124.082 123.503 124.339 123.808 124.647C125.189 125.721 127.172 125.318 128.844 124.805C131.695 123.931 140.552 122.283 138.668 118.228C137.239 115.152 132.031 115.92 129.429 114.073C129.116 113.875 128.849 113.613 128.646 113.304C127.853 111.94 128.904 110.634 129.759 109.675C130.196 109.184 131.286 107.61 130.766 106.892C130.319 106.275 129.03 107.777 128.544 108.14C127.702 108.77 126.828 109.354 125.924 109.891C125.132 110.254 124.456 110.829 123.972 111.552C123.472 112.519 123.75 113.72 123.389 114.752C123.24 115.17 122.969 115.533 122.612 115.795Z" fill="#C56E53"/>
<path d="M56.2225 84.1295C56.0825 89.4295 58.4225 104.202 61.8835 112.155C66.0827 114.049 70.7217 114.754 75.2942 114.192C79.8666 113.629 84.1966 111.821 87.8115 108.966C87.8115 108.966 84.9385 78.1215 80.5405 73.0485C77.5465 69.5955 72.8165 64.8725 67.6615 66.8755C67.2479 67.0399 66.8433 67.2262 66.4495 67.4335C63.4121 69.0531 60.8625 71.4548 59.0645 74.3901C57.2665 77.3255 56.2854 80.6879 56.2225 84.1295Z" fill="#812024"/>
<path d="M198.197 145.955H11.8035C5.38434 145.955 0.180542 151.158 0.180542 157.578V196.337C0.180542 202.756 5.38434 207.96 11.8035 207.96H198.197C204.616 207.96 209.82 202.756 209.82 196.337V157.578C209.82 151.158 204.616 145.955 198.197 145.955Z" fill="#8BC63E"/>
<path d="M126.393 139.751C126.675 139.478 126.874 139.131 126.969 138.75C127.064 138.369 127.05 137.968 126.928 137.595C126.807 137.221 126.583 136.889 126.283 136.636C125.982 136.383 125.616 136.22 125.228 136.164L113.128 134.406C112.95 134.381 112.781 134.312 112.635 134.206C112.49 134.1 112.372 133.961 112.293 133.799L106.882 122.836C106.709 122.484 106.44 122.187 106.107 121.98C105.774 121.772 105.389 121.662 104.997 121.662C104.604 121.662 104.219 121.772 103.886 121.98C103.553 122.187 103.285 122.484 103.112 122.836L97.7005 133.799C97.621 133.961 97.5034 134.1 97.358 134.206C97.2125 134.312 97.0435 134.381 96.8655 134.406L84.7655 136.164C84.3768 136.22 84.0115 136.384 83.711 136.636C83.4106 136.889 83.187 137.221 83.0656 137.594C82.9443 137.968 82.9301 138.368 83.0247 138.749C83.1192 139.13 83.3187 139.477 83.6005 139.75L92.3545 148.284C92.4834 148.41 92.5797 148.565 92.6353 148.736C92.6909 148.907 92.704 149.089 92.6735 149.266L90.6125 161.316C90.5453 161.703 90.5878 162.101 90.7354 162.465C90.883 162.829 91.1296 163.145 91.4474 163.375C91.7651 163.606 92.1413 163.743 92.533 163.771C92.9247 163.799 93.3164 163.716 93.6635 163.532L104.484 157.843C104.643 157.76 104.82 157.716 105 157.716C105.18 157.716 105.357 157.76 105.517 157.843L116.337 163.532C116.684 163.716 117.075 163.799 117.467 163.771C117.859 163.743 118.235 163.606 118.553 163.375C118.87 163.145 119.117 162.829 119.265 162.465C119.412 162.101 119.455 161.703 119.388 161.316L117.321 149.267C117.29 149.09 117.303 148.908 117.359 148.737C117.414 148.566 117.511 148.411 117.64 148.285L126.393 139.751Z" fill="#F58700"/>
<path d="M113.131 134.407C112.953 134.382 112.784 134.313 112.638 134.207C112.493 134.101 112.375 133.962 112.296 133.8L106.885 122.837C106.712 122.485 106.443 122.188 106.11 121.981C105.777 121.773 105.392 121.663 105 121.663C104.607 121.663 104.222 121.773 103.889 121.981C103.556 122.188 103.288 122.485 103.115 122.837L97.7036 133.8C97.6241 133.962 97.5065 134.101 97.361 134.207C97.2155 134.313 97.0465 134.382 96.8686 134.407L84.7686 136.165C84.3799 136.221 84.0146 136.385 83.7141 136.637C83.4136 136.89 83.19 137.222 83.0687 137.595C82.9474 137.969 82.9332 138.369 83.0277 138.75C83.1223 139.131 83.3218 139.478 83.6036 139.751L92.1846 148.116C95.4778 147.742 98.745 147.165 101.968 146.39C111.609 144.081 119.887 140.322 125.328 136.183L113.131 134.407Z" fill="#FFAC0E"/>
<path d="M156.208 146.081C156.415 145.879 156.561 145.623 156.63 145.343C156.7 145.062 156.689 144.768 156.6 144.493C156.511 144.218 156.346 143.974 156.125 143.788C155.904 143.602 155.636 143.481 155.35 143.44L146.44 142.146C146.309 142.126 146.184 142.076 146.077 141.998C145.97 141.92 145.883 141.817 145.825 141.699L141.84 133.625C141.712 133.366 141.514 133.148 141.268 132.995C141.023 132.843 140.74 132.762 140.451 132.762C140.162 132.762 139.879 132.843 139.634 132.995C139.388 133.148 139.191 133.366 139.063 133.625L135.078 141.699C135.019 141.817 134.932 141.92 134.825 141.998C134.718 142.076 134.594 142.126 134.463 142.146L125.553 143.44C125.267 143.481 124.998 143.601 124.777 143.788C124.556 143.974 124.391 144.218 124.302 144.493C124.212 144.768 124.202 145.062 124.271 145.343C124.34 145.623 124.487 145.879 124.694 146.081L131.142 152.366C131.236 152.458 131.307 152.572 131.348 152.698C131.389 152.824 131.399 152.958 131.377 153.089L129.855 161.963C129.806 162.247 129.837 162.54 129.946 162.808C130.055 163.076 130.237 163.308 130.47 163.477C130.704 163.647 130.981 163.748 131.269 163.769C131.558 163.79 131.846 163.729 132.102 163.595L140.072 159.406C140.189 159.344 140.319 159.312 140.452 159.312C140.584 159.312 140.714 159.344 140.832 159.406L148.802 163.595C149.057 163.729 149.346 163.79 149.634 163.769C149.922 163.748 150.199 163.647 150.433 163.477C150.667 163.308 150.848 163.076 150.957 162.808C151.066 162.54 151.098 162.247 151.049 161.963L149.527 153.089C149.504 152.958 149.514 152.824 149.555 152.698C149.596 152.572 149.667 152.458 149.762 152.366L156.208 146.081Z" fill="#F58700"/>
<path d="M146.44 142.146C146.309 142.126 146.184 142.076 146.077 141.998C145.97 141.92 145.883 141.817 145.825 141.699L141.84 133.625C141.712 133.366 141.514 133.148 141.268 132.995C141.023 132.843 140.74 132.762 140.451 132.762C140.162 132.762 139.879 132.843 139.634 132.995C139.388 133.148 139.191 133.366 139.063 133.625L135.078 141.699C135.019 141.817 134.932 141.92 134.825 141.998C134.718 142.076 134.594 142.126 134.463 142.146L125.553 143.44C125.267 143.481 124.998 143.601 124.777 143.788C124.556 143.974 124.391 144.218 124.302 144.493C124.212 144.768 124.202 145.062 124.271 145.343C124.34 145.623 124.487 145.879 124.694 146.081L131.013 152.24C133.438 151.964 135.844 151.539 138.218 150.968C145.318 149.268 151.418 146.499 155.418 143.45L146.44 142.146Z" fill="#FFAC0E"/>
<path d="M191.658 146.081C191.865 145.879 192.012 145.623 192.081 145.343C192.15 145.062 192.14 144.768 192.05 144.493C191.961 144.218 191.796 143.974 191.575 143.788C191.354 143.601 191.086 143.481 190.799 143.44L181.889 142.146C181.758 142.126 181.634 142.076 181.527 141.998C181.42 141.92 181.333 141.817 181.274 141.699L177.29 133.625C177.162 133.366 176.965 133.148 176.719 132.995C176.474 132.843 176.191 132.762 175.902 132.762C175.613 132.762 175.33 132.843 175.085 132.995C174.839 133.148 174.642 133.366 174.513 133.625L170.529 141.699C170.471 141.817 170.384 141.92 170.277 141.998C170.17 142.076 170.045 142.126 169.914 142.146L161.004 143.44C160.718 143.481 160.45 143.601 160.229 143.788C160.007 143.974 159.843 144.218 159.754 144.493C159.664 144.768 159.653 145.062 159.723 145.343C159.792 145.623 159.938 145.879 160.145 146.081L166.593 152.366C166.688 152.458 166.759 152.572 166.8 152.698C166.841 152.824 166.851 152.958 166.828 153.089L165.306 161.963C165.257 162.247 165.289 162.54 165.398 162.808C165.507 163.076 165.689 163.308 165.922 163.477C166.156 163.647 166.433 163.748 166.721 163.769C167.009 163.79 167.298 163.729 167.553 163.595L175.523 159.406C175.641 159.344 175.771 159.312 175.903 159.312C176.036 159.312 176.166 159.344 176.283 159.406L184.253 163.595C184.509 163.729 184.797 163.79 185.086 163.769C185.374 163.748 185.651 163.647 185.885 163.477C186.118 163.308 186.3 163.076 186.409 162.808C186.518 162.54 186.549 162.247 186.5 161.963L184.978 153.089C184.956 152.958 184.966 152.824 185.007 152.698C185.048 152.572 185.119 152.458 185.213 152.366L191.658 146.081Z" fill="#F58700"/>
<path d="M181.89 142.146C181.759 142.126 181.635 142.076 181.528 141.998C181.421 141.92 181.334 141.817 181.275 141.699L177.29 133.625C177.162 133.366 176.965 133.148 176.719 132.995C176.474 132.843 176.191 132.762 175.902 132.762C175.613 132.762 175.33 132.843 175.085 132.995C174.839 133.148 174.642 133.366 174.513 133.625L170.529 141.699C170.471 141.817 170.384 141.92 170.277 141.998C170.17 142.076 170.045 142.126 169.914 142.146L161.004 143.44C160.718 143.481 160.45 143.601 160.229 143.788C160.007 143.974 159.843 144.218 159.754 144.493C159.664 144.768 159.653 145.062 159.723 145.343C159.792 145.623 159.938 145.879 160.145 146.081L166.464 152.24C168.89 151.964 171.296 151.539 173.669 150.968C180.769 149.268 186.869 146.499 190.869 143.45L181.89 142.146Z" fill="#FFAC0E"/>
<path d="M49.8555 146.081C50.0626 145.879 50.209 145.623 50.2783 145.343C50.3475 145.062 50.3369 144.768 50.2475 144.493C50.1581 144.218 49.9935 143.974 49.7724 143.788C49.5514 143.601 49.2826 143.481 48.9965 143.44L40.0865 142.146C39.9555 142.126 39.8311 142.076 39.724 141.998C39.6169 141.92 39.5303 141.817 39.4715 141.699L35.4875 133.625C35.3595 133.366 35.1616 133.148 34.9163 132.995C34.6709 132.843 34.3878 132.762 34.099 132.762C33.8102 132.762 33.5271 132.843 33.2818 132.995C33.0364 133.148 32.8385 133.366 32.7105 133.625L28.7255 141.699C28.6669 141.817 28.5803 141.92 28.4732 141.998C28.366 142.076 28.2416 142.126 28.1105 142.146L19.2005 143.44C18.9145 143.481 18.6457 143.601 18.4246 143.788C18.2035 143.974 18.039 144.218 17.9496 144.493C17.8602 144.768 17.8495 145.062 17.9188 145.343C17.988 145.623 18.1345 145.879 18.3415 146.081L24.7895 152.366C24.8844 152.458 24.9553 152.572 24.9962 152.698C25.0372 152.824 25.0469 152.958 25.0245 153.089L23.5025 161.963C23.4535 162.247 23.4853 162.54 23.5941 162.808C23.703 163.076 23.8846 163.308 24.1184 163.477C24.3523 163.647 24.629 163.748 24.9172 163.769C25.2055 163.79 25.4938 163.729 25.7495 163.595L33.7195 159.406C33.8367 159.344 33.9671 159.312 34.0995 159.312C34.2319 159.312 34.3624 159.344 34.4795 159.406L42.4495 163.595C42.7052 163.729 42.9935 163.79 43.2818 163.769C43.5701 163.748 43.8468 163.647 44.0806 163.477C44.3144 163.308 44.4961 163.076 44.6049 162.808C44.7138 162.54 44.7455 162.247 44.6965 161.963L43.1745 153.089C43.1522 152.958 43.1619 152.824 43.2028 152.698C43.2437 152.572 43.3147 152.458 43.4095 152.366L49.8555 146.081Z" fill="#F58700"/>
<path d="M40.0865 142.146C39.9555 142.126 39.8311 142.076 39.724 141.998C39.6169 141.92 39.5303 141.817 39.4715 141.699L35.4875 133.625C35.3595 133.366 35.1616 133.148 34.9163 132.995C34.6709 132.843 34.3878 132.762 34.099 132.762C33.8102 132.762 33.5271 132.843 33.2818 132.995C33.0364 133.148 32.8385 133.366 32.7105 133.625L28.7255 141.699C28.6669 141.817 28.5803 141.92 28.4732 141.998C28.366 142.076 28.2416 142.126 28.1105 142.146L19.2005 143.44C18.9145 143.481 18.6457 143.601 18.4246 143.788C18.2035 143.974 18.039 144.218 17.9496 144.493C17.8602 144.768 17.8495 145.062 17.9188 145.343C17.988 145.623 18.1345 145.879 18.3415 146.081L24.6605 152.24C27.0843 151.963 29.4888 151.539 31.8605 150.968C38.9605 149.268 45.0605 146.499 49.0605 143.45L40.0865 142.146Z" fill="#FFAC0E"/>
<path d="M85.3015 146.081C85.5085 145.879 85.6549 145.623 85.7242 145.343C85.7935 145.062 85.7828 144.768 85.6934 144.493C85.604 144.218 85.4395 143.974 85.2184 143.788C84.9973 143.601 84.7285 143.481 84.4425 143.44L75.5325 142.146C75.4014 142.126 75.2769 142.076 75.1698 141.998C75.0627 141.92 74.9761 141.817 74.9175 141.699L70.9325 133.625C70.8044 133.366 70.6066 133.148 70.3612 132.995C70.1159 132.843 69.8328 132.762 69.544 132.762C69.2551 132.762 68.9721 132.843 68.7267 132.995C68.4814 133.148 68.2835 133.366 68.1555 133.625L64.1705 141.699C64.1119 141.817 64.0253 141.92 63.9181 141.998C63.811 142.076 63.6865 142.126 63.5555 142.146L54.6455 143.44C54.3594 143.481 54.0906 143.601 53.8695 143.788C53.6485 143.974 53.4839 144.218 53.3945 144.493C53.3051 144.768 53.2945 145.062 53.3637 145.343C53.433 145.623 53.5794 145.879 53.7865 146.081L60.2345 152.366C60.3293 152.458 60.4002 152.572 60.4412 152.698C60.4821 152.824 60.4918 152.958 60.4695 153.089L58.9475 161.963C58.8985 162.247 58.9302 162.54 59.0391 162.808C59.1479 163.076 59.3295 163.308 59.5634 163.477C59.7972 163.647 60.0739 163.748 60.3622 163.769C60.6505 163.79 60.9388 163.729 61.1945 163.595L69.1645 159.406C69.2816 159.344 69.412 159.312 69.5445 159.312C69.6769 159.312 69.8073 159.344 69.9245 159.406L77.8945 163.595C78.1502 163.729 78.4385 163.79 78.7267 163.769C79.015 163.748 79.2917 163.647 79.5256 163.477C79.7594 163.308 79.941 163.076 80.0499 162.808C80.1587 162.54 80.1904 162.247 80.1415 161.963L78.6195 153.089C78.5971 152.958 78.6068 152.824 78.6477 152.698C78.6887 152.572 78.7596 152.458 78.8545 152.366L85.3015 146.081Z" fill="#F58700"/>
<path d="M75.5375 142.146C75.4064 142.126 75.2819 142.076 75.1748 141.998C75.0677 141.92 74.9811 141.817 74.9225 141.699L70.9375 133.625C70.8094 133.366 70.6116 133.148 70.3662 132.995C70.1209 132.843 69.8378 132.762 69.549 132.762C69.2601 132.762 68.9771 132.843 68.7317 132.995C68.4864 133.148 68.2885 133.366 68.1605 133.625L64.1755 141.699C64.1169 141.817 64.0303 141.92 63.9231 141.998C63.816 142.076 63.6915 142.126 63.5605 142.146L54.6505 143.44C54.3644 143.481 54.0956 143.601 53.8745 143.788C53.6535 143.974 53.4889 144.218 53.3995 144.493C53.3101 144.768 53.2995 145.062 53.3687 145.343C53.438 145.623 53.5844 145.879 53.7915 146.081L60.1105 152.24C62.5359 151.964 64.9421 151.539 67.3155 150.968C74.4155 149.268 80.5155 146.499 84.5155 143.45L75.5375 142.146Z" fill="#FFAC0E"/>
<path d="M196.387 169.162H13.6146C11.2972 169.162 9.41858 171.04 9.41858 173.358V195.261C9.41858 197.578 11.2972 199.457 13.6146 199.457H196.387C198.704 199.457 200.583 197.578 200.583 195.261V173.358C200.583 171.04 198.704 169.162 196.387 169.162Z" fill="white"/>
<path d="M42.7075 193.215C47.6262 188.296 47.6262 180.321 42.7075 175.403C37.7889 170.484 29.8142 170.484 24.8955 175.403C19.9769 180.321 19.9769 188.296 24.8955 193.215C29.8142 198.133 37.7889 198.133 42.7075 193.215Z" fill="#B5FDFF"/>
<path d="M40.1205 189.95L35.8085 186.737C37.0554 186.267 38.098 185.375 38.7544 184.215C39.4109 183.055 39.6397 181.702 39.4009 180.391C39.1622 179.081 38.471 177.895 37.4479 177.041C36.4247 176.188 35.1345 175.72 33.802 175.72C32.4696 175.72 31.1793 176.188 30.1562 177.041C29.1331 177.895 28.4419 179.081 28.2031 180.391C27.9644 181.702 28.1932 183.055 28.8496 184.215C29.5061 185.375 30.5486 186.267 31.7955 186.737L27.4845 189.95C27.2305 190.139 27.0241 190.385 26.8819 190.668C26.7397 190.951 26.6656 191.264 26.6655 191.581V194.681C28.7653 196.126 31.2542 196.899 33.803 196.899C36.3519 196.899 38.8408 196.126 40.9405 194.681V191.581C40.9403 191.264 40.866 190.951 40.7237 190.668C40.5813 190.385 40.3748 190.139 40.1205 189.95Z" fill="#71AEDE"/>
<path d="M187.155 179.199H55.5555C55.1213 179.199 54.7049 179.371 54.3979 179.678C54.0909 179.985 53.9185 180.402 53.9185 180.836C53.9185 181.27 54.0909 181.686 54.3979 181.993C54.7049 182.3 55.1213 182.473 55.5555 182.473H187.155C187.59 182.473 188.006 182.3 188.313 181.993C188.62 181.686 188.792 181.27 188.792 180.836C188.792 180.402 188.62 179.985 188.313 179.678C188.006 179.371 187.59 179.199 187.155 179.199Z" fill="#8BC63E"/>
<path d="M187.155 186.145H55.5555C55.1213 186.145 54.7049 186.317 54.3979 186.624C54.0909 186.931 53.9185 187.347 53.9185 187.782C53.9185 188.216 54.0909 188.632 54.3979 188.939C54.7049 189.246 55.1213 189.419 55.5555 189.419H187.155C187.59 189.419 188.006 189.246 188.313 188.939C188.62 188.632 188.792 188.216 188.792 187.782C188.792 187.347 188.62 186.931 188.313 186.624C188.006 186.317 187.59 186.145 187.155 186.145Z" fill="#8BC63E"/>
<path d="M188.989 112.95C188.539 112.45 187.925 112.129 187.258 112.045C185.632 111.745 183.943 112.145 182.326 111.779C182.164 111.761 182.008 111.706 181.871 111.617C181.734 111.529 181.619 111.41 181.537 111.27C181.454 111.02 181.438 110.754 181.492 110.497C181.621 109.313 181.628 108.12 181.512 106.935C181.5 105.979 181.163 105.056 180.557 104.317C180.408 104.156 180.224 104.032 180.018 103.956C179.813 103.881 179.592 103.855 179.375 103.881C179.157 103.907 178.949 103.985 178.767 104.107C178.586 104.229 178.436 104.393 178.33 104.585C178.19 105.288 178.197 106.013 178.348 106.715C178.377 108.287 177.16 109.476 176.272 110.699C175.787 111.369 175.384 112.095 175.072 112.861C174.82 113.476 174.817 114.372 174.24 114.724C174.166 114.768 174.088 114.806 174.008 114.837V114.828C174 114.565 173.889 114.317 173.699 114.136C173.509 113.955 173.255 113.857 172.993 113.864L169.243 113.819C168.98 113.806 168.724 113.898 168.529 114.074C168.334 114.25 168.217 114.496 168.204 114.758L168.095 123.887C168.102 124.149 168.213 124.398 168.403 124.579C168.594 124.759 168.848 124.857 169.111 124.851L172.861 124.896C173.123 124.908 173.379 124.817 173.574 124.641C173.769 124.465 173.886 124.219 173.9 123.957V123.889C174.823 124.043 175.753 124.157 176.693 124.245C178.817 124.442 180.953 124.509 183.086 124.445C184.229 124.493 185.365 124.247 186.386 123.73C186.593 123.618 186.771 123.458 186.902 123.262C187.014 122.973 187.063 122.664 187.044 122.354C187.024 122.045 186.938 121.744 186.791 121.472C187.046 121.42 187.283 121.303 187.48 121.133C187.677 120.963 187.826 120.745 187.915 120.5C188.009 120.242 188.044 119.967 188.016 119.694C187.988 119.421 187.899 119.158 187.755 118.925C188.103 118.685 188.394 118.371 188.608 118.006C188.716 117.813 188.774 117.597 188.779 117.377C188.783 117.156 188.733 116.938 188.633 116.742C188.513 116.598 188.412 116.44 188.333 116.272C188.305 116.135 188.312 115.993 188.354 115.86C188.395 115.726 188.469 115.605 188.569 115.508C188.749 115.308 188.974 115.159 189.136 114.94C189.32 114.634 189.405 114.278 189.379 113.921C189.352 113.565 189.216 113.225 188.989 112.95Z" fill="#8BC63E"/>
<path d="M47.1076 23.7347C46.6725 23.2512 46.0779 22.9402 45.4326 22.8587C43.8576 22.5687 42.2226 22.9517 40.6576 22.6017C40.5006 22.5847 40.3498 22.5312 40.2172 22.4457C40.0846 22.3601 39.9737 22.2447 39.8936 22.1087C39.8137 21.8675 39.7985 21.6096 39.8496 21.3607C39.9752 20.2148 39.9815 19.0589 39.8686 17.9117C39.8576 16.9861 39.5313 16.0919 38.9436 15.3767C38.8001 15.2204 38.6215 15.1005 38.4225 15.0269C38.2235 14.9533 38.0098 14.9281 37.7991 14.9534C37.5885 14.9787 37.3869 15.0538 37.211 15.1724C37.0351 15.2911 36.8899 15.4499 36.7876 15.6357C36.6528 16.317 36.6586 17.0187 36.8046 17.6977C36.8326 19.2197 35.6546 20.3707 34.7946 21.5547C34.3253 22.2037 33.9353 22.9063 33.6326 23.6477C33.3886 24.2477 33.3856 25.1107 32.8266 25.4477C32.7549 25.4906 32.6796 25.5271 32.6016 25.5567V25.5477C32.5945 25.2937 32.4871 25.0528 32.3029 24.8778C32.1187 24.7027 31.8726 24.6078 31.6186 24.6137L27.9886 24.5707C27.7347 24.5585 27.4864 24.6474 27.298 24.818C27.1096 24.9886 26.9965 25.2269 26.9836 25.4807L26.8776 34.3187C26.8846 34.5726 26.9921 34.8134 27.1763 34.9883C27.3606 35.1632 27.6066 35.2579 27.8606 35.2517L31.4916 35.2957C31.7446 35.3066 31.9916 35.2171 32.1789 35.0466C32.3662 34.8762 32.4786 34.6386 32.4916 34.3857V34.3187C33.3846 34.4677 34.2856 34.5787 35.1916 34.6627C37.2485 34.8563 39.3154 34.9231 41.3806 34.8627C42.4889 34.9105 43.591 34.6722 44.5806 34.1707C44.7817 34.0627 44.9533 33.9072 45.0806 33.7177C45.1896 33.4383 45.2363 33.1385 45.2175 32.8392C45.1987 32.5399 45.1147 32.2483 44.9716 31.9847C45.2185 31.9345 45.4483 31.8215 45.6388 31.6567C45.8294 31.4919 45.9743 31.2808 46.0596 31.0437C46.1511 30.7944 46.1847 30.5276 46.1578 30.2634C46.1309 29.9992 46.0444 29.7445 45.9046 29.5187C46.2423 29.2868 46.5244 28.9828 46.7306 28.6287C46.8346 28.4425 46.8912 28.2335 46.8954 28.0202C46.8996 27.8069 46.8512 27.5959 46.7546 27.4057C46.6403 27.2668 46.5442 27.1139 46.4686 26.9507C46.4421 26.8183 46.4491 26.6814 46.4889 26.5523C46.5287 26.4233 46.6001 26.3062 46.6966 26.2117C46.8716 26.0177 47.0896 25.8737 47.2466 25.6617C47.4258 25.3657 47.5087 25.0213 47.4838 24.6761C47.4589 24.3309 47.3274 24.002 47.1076 23.7347Z" fill="#8BC63E"/>
<path d="M38.5136 112.188C38.1764 111.812 37.7149 111.57 37.2136 111.506C35.9876 111.28 34.7136 111.578 33.4966 111.306C33.3744 111.293 33.257 111.252 33.1537 111.185C33.0504 111.119 32.9641 111.029 32.9016 110.923C32.8395 110.735 32.8278 110.534 32.8676 110.34C32.9655 109.448 32.9709 108.549 32.8836 107.655C32.8749 106.935 32.621 106.239 32.1636 105.682C32.0519 105.561 31.9129 105.467 31.758 105.41C31.6031 105.353 31.4369 105.333 31.2729 105.353C31.1089 105.372 30.9519 105.43 30.8148 105.522C30.6778 105.615 30.5646 105.738 30.4846 105.882C30.3794 106.413 30.3839 106.96 30.4976 107.488C30.5196 108.673 29.5976 109.569 28.9326 110.488C28.569 110.994 28.2669 111.541 28.0326 112.117C27.8426 112.581 27.8406 113.256 27.4056 113.517C27.3499 113.551 27.2913 113.579 27.2306 113.602V113.595C27.2253 113.398 27.1419 113.21 26.9984 113.074C26.855 112.937 26.6634 112.864 26.4656 112.868L23.6386 112.834C23.4409 112.825 23.2474 112.894 23.1006 113.026C22.9538 113.159 22.8657 113.345 22.8556 113.542L22.7726 120.423C22.7781 120.621 22.8618 120.809 23.0054 120.945C23.149 121.081 23.3407 121.155 23.5386 121.15L26.3646 121.184C26.5624 121.194 26.7559 121.125 26.9026 120.992C27.0494 120.859 27.1375 120.673 27.1476 120.475V120.424C27.8476 120.54 28.5476 120.624 29.2476 120.692C30.8493 120.842 32.4587 120.892 34.0666 120.844C34.9283 120.881 35.7851 120.696 36.5546 120.306C36.711 120.222 36.8445 120.101 36.9436 119.953C37.0284 119.736 37.0648 119.503 37.0503 119.27C37.0358 119.037 36.9707 118.81 36.8596 118.604C37.0518 118.565 37.2307 118.477 37.379 118.349C37.5274 118.22 37.6402 118.056 37.7066 117.871C37.7778 117.677 37.8038 117.47 37.7829 117.264C37.7619 117.058 37.6944 116.86 37.5856 116.684C37.8487 116.504 38.0683 116.267 38.2286 115.991C38.3099 115.847 38.3541 115.684 38.3574 115.518C38.3608 115.352 38.323 115.187 38.2476 115.039C38.1584 114.931 38.0834 114.812 38.0246 114.685C38.0038 114.582 38.0092 114.476 38.0403 114.375C38.0714 114.275 38.1272 114.184 38.2026 114.11C38.3386 113.959 38.5086 113.847 38.6306 113.681C38.7674 113.451 38.8296 113.184 38.8087 112.916C38.7877 112.649 38.6847 112.395 38.5136 112.188Z" fill="#8BC63E"/>
<path d="M139.106 18.6616C138.768 18.2856 138.307 18.0432 137.806 17.9786C136.58 17.7526 135.306 18.0506 134.089 17.7786C133.966 17.7654 133.849 17.7238 133.746 17.6571C133.642 17.5904 133.556 17.5005 133.494 17.3946C133.431 17.2066 133.42 17.0055 133.46 16.8116C133.557 15.9195 133.563 15.0197 133.476 14.1266C133.466 13.4063 133.212 12.7105 132.756 12.1536C132.644 12.0319 132.505 11.9386 132.35 11.8813C132.195 11.8239 132.029 11.8042 131.865 11.8237C131.701 11.8433 131.544 11.9015 131.407 11.9936C131.27 12.0857 131.157 12.2091 131.077 12.3536C130.972 12.8839 130.976 13.43 131.09 13.9586C131.112 15.1436 130.19 16.0396 129.525 16.9586C129.161 17.4639 128.859 18.0107 128.625 18.5876C128.435 19.0516 128.433 19.7266 127.998 19.9876C127.942 20.021 127.883 20.0494 127.823 20.0726V20.0656C127.817 19.8678 127.734 19.6802 127.59 19.5439C127.447 19.4076 127.255 19.3337 127.058 19.3386L124.231 19.3046C124.033 19.2948 123.839 19.3638 123.693 19.4966C123.546 19.6293 123.458 19.8149 123.448 20.0126L123.365 26.8936C123.37 27.0913 123.454 27.2788 123.597 27.415C123.74 27.5512 123.932 27.6252 124.13 27.6206L126.957 27.6546C127.154 27.6641 127.348 27.595 127.494 27.4623C127.641 27.3296 127.729 27.1441 127.74 26.9466V26.8956C128.44 27.0116 129.14 27.0956 129.84 27.1636C131.441 27.3176 133.051 27.3731 134.66 27.3296C135.521 27.366 136.378 27.1804 137.148 26.7906C137.304 26.7065 137.438 26.5853 137.537 26.4376C137.621 26.2201 137.658 25.9867 137.643 25.7537C137.628 25.5207 137.563 25.2937 137.452 25.0886C137.644 25.0495 137.823 24.9614 137.971 24.8331C138.12 24.7047 138.232 24.5402 138.299 24.3556C138.37 24.1615 138.396 23.9538 138.375 23.7481C138.354 23.5425 138.287 23.3443 138.178 23.1686C138.44 22.9877 138.66 22.7511 138.821 22.4756C138.902 22.3306 138.946 22.1677 138.95 22.0015C138.953 21.8352 138.915 21.6707 138.84 21.5226C138.75 21.4146 138.676 21.2956 138.617 21.1686C138.596 21.0654 138.602 20.9588 138.633 20.8584C138.664 20.758 138.72 20.667 138.796 20.5936C138.932 20.4426 139.101 20.3306 139.224 20.1646C139.363 19.9329 139.426 19.6636 139.405 19.3942C139.384 19.1249 139.279 18.8688 139.106 18.6616Z" fill="#8BC63E"/>
</svg>
