<svg width="298" height="199" viewBox="0 0 298 199" fill="none" xmlns="http://www.w3.org/2000/svg">
<g clip-path="url(#clip0_55_1404)">
<path d="M0.932364 197.039C0.411337 197.039 0 197.478 0 198.027C0 198.575 0.411337 199.014 0.932364 199.014H297.027C297.561 199.014 298 198.575 298 198.04V198.027C298 197.492 297.561 197.053 297.027 197.053H0.932364V197.039Z" fill="#DEE5E7"/>
<path d="M156.212 93.8364L154.594 91.5049H151.756C151.427 91.5049 151.249 91.1346 151.441 90.874L153.168 88.6111L152.291 85.9093C152.195 85.6076 152.483 85.3059 152.784 85.4156L155.458 86.3619L157.748 84.6887C158.008 84.4967 158.378 84.6887 158.365 85.0179L158.296 87.8568L160.6 89.5163C160.86 89.7083 160.792 90.1197 160.476 90.202L157.761 91.0112L156.884 93.713C156.802 94.0421 156.39 94.1107 156.212 93.8364Z" fill="#F47458"/>
<path d="M231.117 42.3789L232.611 38.9091L230.609 35.7136C230.376 35.3433 230.664 34.877 231.103 34.9181L234.86 35.2747L237.287 32.3809C237.561 32.0518 238.096 32.1752 238.192 32.6003L239.014 36.2896L242.511 37.7022C242.908 37.8668 242.949 38.4154 242.579 38.6348L239.33 40.5549L239.069 44.3264C239.042 44.7515 238.534 44.971 238.205 44.683L235.367 42.1869L231.706 43.1058C231.309 43.1881 230.952 42.7629 231.117 42.3789Z" fill="#F7CC7F"/>
<path d="M35.6355 137.655L33.7159 133.979L29.6025 133.472C29.1363 133.417 28.9307 132.841 29.2598 132.512L32.1665 129.549L31.3713 125.476C31.2753 125.01 31.7552 124.653 32.1802 124.859L35.896 126.697L39.5158 124.681C39.9271 124.447 40.4207 124.79 40.3521 125.257L39.7488 129.357L42.779 132.182C43.1218 132.498 42.9573 133.088 42.4911 133.156L38.4051 133.842L36.6501 137.6C36.4581 138.052 35.8549 138.066 35.6355 137.655Z" fill="#9BC1F9"/>
<path d="M255.084 49.3457L255.139 51.3618L251.917 51.7869L251.629 54.7356L249.27 55.4624L249.627 56.6556L252.78 55.6819L253.055 52.8978L256.414 52.4452L256.345 49.428L255.084 49.3457Z" fill="#466EB6"/>
<path d="M76.6595 28.7877C76.8377 27.4711 78.0992 26.5111 79.4155 26.7031C80.7866 26.8951 81.5681 28.006 81.4447 29.3912C81.2939 30.7764 80.2381 31.7227 78.7847 31.5581C77.3314 31.3935 76.4813 30.214 76.6595 28.7877ZM77.9621 25.1808L78.6065 14.593C78.6613 13.7153 79.4292 13.0707 80.3067 13.1667L81.3625 13.2901C82.2263 13.3861 82.8433 14.1953 82.7062 15.0593L81.0197 25.5236L77.9621 25.1808Z" fill="#F48C7F"/>
<path d="M69.9547 82.0409C70.0233 84.6604 70.7088 90.2971 76.6595 91.2297C80.3478 91.8057 85.0782 88.4868 84.7766 86.0455C84.4749 83.6043 83.7894 77.4053 79.9365 75.979C76.7144 74.7995 69.7902 76.1847 69.9547 82.0409Z" fill="#184655"/>
<path d="M119.603 166.881C120.439 170.419 121.111 175.521 121.358 175.795C121.482 175.932 121.715 176.824 121.838 176.961C125.677 178.36 129.064 176.92 131.738 175.329C129.64 174.958 126.815 174.574 126.418 174.286C124.964 173.258 125.307 169.582 125.046 166.291C124.004 166.497 121.482 165.838 119.603 166.881Z" fill="#F7A491"/>
<path d="M121.276 175.603C121.303 177.002 122.195 179.978 122.483 179.978C122.812 179.978 134.356 178.977 135.453 177.208C136.111 176.138 134.329 175.864 131.738 175.356C129.05 176.934 121.591 176.481 121.276 175.603Z" fill="#466EB6"/>
<path d="M64.7582 174.767C62.0845 176.865 59.3834 178.538 59.0406 178.689C58.8761 178.771 57.9574 178.758 57.7792 178.84C55.4071 182.173 55.887 185.807 56.696 188.81C57.6146 186.89 58.6978 184.202 59.1229 183.969C59.7947 183.585 62.1942 182.159 66.5132 180.403C65.0598 178.826 65.2655 176.865 64.7582 174.767Z" fill="#F7A491"/>
<path d="M70.846 100.927L62.5918 115.944C62.5918 115.944 57.0799 122.898 54.228 126.463C54.845 127.465 55.4346 128.493 55.9556 129.549C58.7801 127.149 64.7993 122.047 66.9383 119.222C70.1056 115.053 75.8506 105.165 75.8506 105.165L70.846 100.927Z" fill="#F7A491"/>
<path d="M92.7976 127.066L83.9676 140.095C83.9676 140.095 83.4603 139.218 86.6276 140.383C89.7949 141.535 110.183 145.348 111.39 146.788C112.24 147.803 118.561 167.813 119.781 170.377C121.619 171.118 124.279 170.295 126.171 170.021C126.294 160.379 121.194 142.838 119.822 140.781C116.779 136.187 102.3 131.222 95.773 128.438C94.7172 127.985 93.8945 127.574 93.3872 127.341C93.0033 127.149 92.7976 127.066 92.7976 127.066Z" fill="#3C8F7C"/>
<path d="M58.9035 178.729C57.5461 178.373 54.8039 178.386 54.7216 178.661C54.6393 178.976 52.5004 190.373 53.9263 191.895C54.7764 192.814 55.5168 191.169 56.7097 188.81C55.9008 185.82 57.9849 178.812 58.9035 178.729Z" fill="#466EB6"/>
<path d="M90.4805 136.242C90.5627 135.268 92.6468 129.549 93.3872 127.327C93.4147 127.259 92.8662 125.97 92.2766 124.118L91.4265 124.255L78.8808 124.818C78.8808 124.818 73.8213 133.362 74.4109 137.284C75.2336 142.756 83.145 162.231 81.9384 163.15C79.772 164.81 69.1184 170.981 63.6476 174.643C64.0041 176.769 64.9776 179.717 66.3213 181.404C70.7774 179.855 90.0006 172.106 91.9887 166.154C93.73 160.901 90.3434 137.901 90.4805 136.242Z" fill="#8BC63E"/>
<path d="M90.2748 88.2404C90.2748 88.2404 86.8196 93.6714 84.7766 93.8634L91.9887 100.529C91.9887 100.529 96.8973 93.164 97.4183 91.9022C97.4183 91.9159 92.9485 87.925 90.2748 88.2404Z" fill="#F7CC7F"/>
<path d="M92.7977 121.059C92.4686 124.049 93.401 127.327 93.401 127.327C90.5079 127.944 80.2245 129.261 77.7153 126.202C77.6193 126.093 81.2802 119.661 80.7729 117.027C80.0325 113.146 76.8104 106.577 76.5499 106.22C76.0974 105.63 74.4521 108.689 74.4521 108.689C72.5188 108.703 68.1038 104.218 68.1038 104.218C68.1038 104.218 72.6696 96.2633 73.931 95.509C75.1925 94.7547 85.5719 93.6301 85.5719 93.6301C86.3397 93.5753 88.4238 95.3856 88.9997 95.9616C95.5536 102.517 93.7849 111.898 92.7977 121.059Z" fill="#FAE0B2"/>
<path d="M79.7172 90.2976C79.7172 90.2976 80.8552 94.0417 80.8552 95.564C80.8689 97.0864 81.4722 99.1573 84.6532 98.8418C87.8342 98.5264 85.2291 95.3172 84.7766 93.8771C84.3241 92.4371 83.7757 87.8701 83.7757 87.8701L79.7172 90.2976Z" fill="#F7A491"/>
<path d="M84.091 90.1468C83.9128 88.8988 83.7894 87.8564 83.7894 87.8564L79.7172 90.2839C79.7172 90.2839 79.9503 91.052 80.1971 92.0257C82.1166 92.2177 83.3918 91.3948 84.091 90.1468Z" fill="#F47458"/>
<path d="M76.399 79.0102C76.399 79.0102 74.7263 80.176 74.2875 82.384C73.8625 84.5921 75.165 90.0368 79.8954 90.8871C84.6258 91.7512 86.1614 87.1705 84.8726 83.8515C83.5837 80.5326 81.0746 76.4182 76.399 79.0102Z" fill="#F7A491"/>
<path d="M85.3251 82.4662C85.3251 83.3988 84.9 84.1531 84.3516 84.1531C83.8169 84.1531 83.3644 83.4125 83.3644 82.4799C83.3644 81.5473 83.7894 80.793 84.3379 80.793C84.8726 80.793 85.3114 81.5473 85.3251 82.4662Z" fill="#F7A491"/>
<path d="M76.3579 87.0885C76.9749 87.8291 77.0709 88.7754 76.5773 89.2006C76.07 89.6257 75.165 89.3514 74.5343 88.6108C73.9173 87.8702 73.8213 86.9239 74.3149 86.4988C74.8222 86.0736 75.7272 86.3479 76.3579 87.0885Z" fill="#F7A491"/>
<path d="M71.559 76.9257C71.7509 74.3885 73.5471 64.9254 67.761 64.0339C61.9748 63.1425 60.7408 69.4512 57.5324 60.9481C54.557 53.0622 45.727 56.1206 45.3568 62.1002C44.5204 62.0316 43.6566 62.155 42.8476 62.4979C40.0231 63.6911 38.748 67.0786 40.0094 70.0684C40.2151 70.5484 40.0917 71.0147 40.3933 71.4124C39.7215 74.0182 40.1877 76.9943 42.1895 80.0253C47.6877 88.2952 53.1996 79.5864 56.9154 80.0527C60.6311 80.519 58.2042 83.4265 61.4264 85.6894C64.6485 87.9523 67.2399 87.3626 72.4776 81.1773L73.7665 79.4767C73.7665 79.4767 71.367 79.4767 71.559 76.9257Z" fill="#184655"/>
<path d="M234.119 148.955C237.012 147.803 239.618 146.226 239.919 146.062C240.152 145.938 241.14 145.211 241.277 145.115C243.827 146.638 244.773 147.927 246.775 149.956C245.28 150.039 244.65 148.818 244.087 148.942C243.402 149.092 241.236 150.546 237.835 153.179C237.259 151.287 235.545 150.327 234.119 148.955Z" fill="#F8A492"/>
<path d="M193.095 178.675C193.753 181.733 194.96 184.435 195.097 184.75C195.166 184.901 195.618 185.011 195.687 185.176C193.767 187.438 192.931 191.21 190.586 192.87C190.751 191.388 191.752 188.604 191.724 188.015C191.683 187.315 190.614 184.929 188.584 181.143C190.572 180.883 191.519 179.854 193.095 178.675Z" fill="#F8A492"/>
<path d="M194.316 185.382C194.576 184.723 195.44 184.271 196.057 184.655C196.674 185.052 197.497 185.478 198.114 185.903C198.813 186.383 198.854 186.918 198.84 187.041C198.786 187.398 190.6 196.984 189.544 197.121C188.488 197.258 190.435 189.153 191.587 188.316C192.615 187.576 193.136 188.344 194.316 185.382Z" fill="#3C8F7C"/>
<path d="M241.044 146.075C240.44 145.705 240.152 144.758 240.646 144.224C241.14 143.689 241.715 142.948 242.25 142.413C242.853 141.824 243.388 141.865 243.498 141.906C243.841 142.015 251.793 151.794 251.738 152.85C251.683 153.906 244.06 150.546 243.443 149.271C242.908 148.132 243.745 147.762 241.044 146.075Z" fill="#3C8F7C"/>
<path d="M196.235 142.948C196.235 142.948 212.387 164.727 215.212 164.933C217.844 165.125 238.219 153.756 238.219 153.756L235.573 147.886L219.256 153.756L207.89 132.251L196.235 142.948Z" fill="#B75742"/>
<path d="M205.531 124.543C205.531 124.543 208.493 125.242 210.18 129.755C211.866 134.267 209.042 138.011 201.953 144.539C195.056 150.903 188.242 156.882 188.242 156.882L193.836 179.909L189.188 183.859C189.188 183.859 178.411 160.448 178.095 154.88C177.972 152.754 194.535 128.068 194.535 128.068L205.531 124.543Z" fill="#F47458"/>
<path d="M193.027 96.346L184.019 101.379L176.875 104.808C176.875 104.808 175.134 98.8832 175.723 95.9757C175.805 95.5643 176.217 95.0705 176.368 94.8511C177.547 93.0819 175.024 90.339 175.024 90.339C175.024 90.339 173.502 89.9138 172.474 92.4099C171.445 94.906 173.351 95.9757 173.351 95.9757C173.351 95.9757 171.185 103.546 172.09 109.073C172.57 111.967 179.795 109.841 185.554 107.345C190.394 105.247 193.959 102.915 193.959 102.915L193.027 96.346Z" fill="#F7A491"/>
<path d="M195.056 95.4822C194.864 95.3039 194.549 95.1942 194.041 95.3862C192.931 95.7976 182.113 101.75 182.113 101.75C182.113 101.75 183.086 106.948 185.623 108.539L191.066 106.879L195.234 96.3462C195.358 96.0445 195.289 95.7016 195.056 95.4822Z" fill="#3C8F7C"/>
<path d="M219.956 73.2641C215.856 70.7543 210.728 71.2343 207.684 74.6081C205.175 73.6618 202.296 73.7441 199.978 74.8275C195.385 76.967 191.327 82.5763 194.782 86.6359C194.041 92.0257 197.277 95.1664 201.295 95.523C203.475 99.9117 211.235 100.364 215.691 96.7436C219.38 98.1699 223.754 97.5528 226.469 94.8921C227.127 94.2475 228.086 93.2326 228.292 93.1366C228.032 93.2738 238.548 91.8749 238.068 82.59C237.588 73.1406 226.263 69.5062 219.956 73.2641Z" fill="#FE875E"/>
<path d="M201.308 94.7688L207.986 95.1391L206.875 104.479C206.875 104.479 203.653 113.462 204.969 117.782C206.286 122.102 207.547 125.257 207.547 125.257C207.547 125.257 203.749 129.618 193.082 128.726C193.082 128.726 193.219 120.978 193.082 118.632C192.945 116.287 190.216 106.509 190.586 104.301C190.956 102.092 193.315 95.9894 193.918 95.4683C194.535 94.9471 196.948 94.6865 196.948 94.6865L201.308 94.7688Z" fill="#8BC63E"/>
<path d="M201.61 89.6394C201.61 89.6394 201.5 90.3937 201.391 91.3675C201.254 92.5744 201.13 94.1241 201.24 94.947C201.445 96.4419 200.047 100.351 196.88 100.501C193.712 100.639 196.811 96.1676 197.058 94.6864C197.291 93.2053 197.291 87.8291 197.291 87.8291L201.61 89.6394Z" fill="#F7A491"/>
<path d="M197.318 90.1057C197.318 88.8577 197.291 87.8291 197.291 87.8291L201.61 89.6394C201.61 89.6394 201.487 90.4212 201.377 91.4086C199.553 91.8612 198.169 91.2166 197.318 90.1057Z" fill="#F47458"/>
<path d="M201.939 78.5445C201.939 78.5445 203.763 79.1891 204.709 81.0954C205.655 83.0018 205.833 88.3094 201.72 90.2843C197.606 92.2592 195.056 88.4602 195.399 85.1001C195.769 81.7537 197.017 77.3513 201.939 78.5445Z" fill="#F7A491"/>
<path d="M194.658 83.9613C194.892 84.8116 195.481 85.3876 195.975 85.2505C196.468 85.1133 196.688 84.3179 196.455 83.4676C196.222 82.6173 195.632 82.0412 195.138 82.1784C194.645 82.3155 194.439 83.111 194.658 83.9613Z" fill="#F7A491"/>
<path d="M204.229 85.7716C203.845 86.6082 203.996 87.4996 204.572 87.7602C205.134 88.0208 205.902 87.5408 206.286 86.7042C206.669 85.8676 206.519 84.9761 205.943 84.7155C205.367 84.455 204.599 84.935 204.229 85.7716Z" fill="#F7A491"/>
<path d="M115.147 126.6C114.516 124.776 88.9448 50.2505 87.8205 46.9864C86.1066 42.008 80.6358 39.3199 75.59 41.0068L37.4454 53.7203C32.3996 55.3935 29.6985 60.7971 31.4124 65.7892L58.7389 145.403C60.4528 150.381 65.9236 153.069 70.9693 151.383L109.114 138.669C114.16 136.996 116.861 131.592 115.147 126.6ZM105.878 128.616L67.3359 141.453C64.4291 142.427 61.2755 140.877 60.2883 137.997L35.0185 64.3766C34.0313 61.4966 35.5944 58.3833 38.5011 57.4233L77.0434 44.5726C79.9502 43.5989 83.1038 45.1487 84.091 48.0287C90.2336 65.899 108.812 120.045 109.361 121.649C110.348 124.529 108.799 127.642 105.878 128.616Z" fill="#355389"/>
<path d="M96.006 137.243C96.5956 138.958 93.8945 141.399 89.9731 142.702C86.0517 144.005 82.4045 143.675 81.8149 141.961C81.2253 140.247 83.9264 137.805 87.8479 136.503C91.7693 135.2 95.4165 135.529 96.006 137.243Z" fill="#184655"/>
<path d="M94.964 137.38C95.5125 138.985 93.2776 141.193 89.9732 142.29C86.6687 143.387 83.5289 142.976 82.9804 141.371C82.432 139.767 84.6669 137.558 87.9713 136.461C91.2757 135.364 94.4019 135.776 94.964 137.38Z" fill="#355389"/>
<path d="M235.422 52.0748L192.547 42.3785C186.884 41.1031 181.29 44.4494 180.07 49.8667L160.504 136.42C159.283 141.837 162.876 147.268 168.552 148.558L211.427 158.254C217.09 159.529 222.684 156.183 223.904 150.766L243.47 64.2123C244.677 58.795 241.085 53.364 235.422 52.0748ZM221.286 143.127C220.573 146.254 217.35 148.187 214.087 147.447L170.773 137.654C167.51 136.914 165.426 133.787 166.139 130.66L184.238 50.6073C184.951 47.4804 188.173 45.5466 191.436 46.2872L234.75 56.0795C238.013 56.8201 240.097 59.947 239.384 63.074L221.286 143.127Z" fill="#86B1F2"/>
<path d="M199.965 149.723C199.54 151.589 195.632 152.288 191.231 151.301C186.829 150.299 183.607 147.995 184.018 146.13C184.444 144.265 188.351 143.566 192.753 144.553C197.154 145.54 200.39 147.858 199.965 149.723Z" fill="#466EB6"/>
<path d="M198.909 149.271C198.511 151.026 195.179 151.753 191.464 150.916C187.748 150.08 185.047 147.981 185.444 146.226C185.842 144.47 189.174 143.744 192.89 144.58C196.619 145.417 199.307 147.515 198.909 149.271Z" fill="#86B1F2"/>
<path d="M207.712 97.5523C207.712 97.5523 221.793 94.1237 224.947 93.5477C228.086 92.9716 238.987 89.0355 239.398 88.871C239.823 88.7064 241.373 83.0971 241.99 83.4948C242.607 83.8925 241.044 86.32 241.811 86.6355C242.579 86.9509 249.147 84.016 249.188 84.5371C249.27 85.5383 245.239 86.4846 245.363 86.9509C245.486 87.4035 249.476 85.5657 249.97 86.2515C250.463 86.9372 246.034 87.6503 245.952 88.0344C245.87 88.4184 250.203 87.9246 249.97 88.7475C249.846 89.2001 246.103 89.1041 246.268 89.6253C246.432 90.1464 249.27 90.6539 249.078 91.1613C248.886 91.655 246.747 90.4207 245.28 90.791C243.813 91.1613 242.552 90.6813 240.385 91.9568C238.219 93.2322 231.117 98.5947 226.057 99.7055C221.011 100.816 209.85 103.285 209.85 103.285L207.712 97.5523Z" fill="#F7A491"/>
<path d="M204.297 95.3857C204.777 95.1525 206.231 95.1251 207.972 95.1388C208.616 95.1388 209.508 95.1525 210.193 95.1251C212.744 95.0565 215.157 95.1662 215.157 95.1662C215.157 95.1662 216.432 101.352 215.376 102.929C215.376 102.929 205.422 104.355 205.655 105.041L204.297 95.3857Z" fill="#8BC63E"/>
<path d="M169.772 95.4267L170.636 94.3432C170.636 94.3432 171.171 93.5203 171.966 93.4381C172.775 93.3558 172.748 92.3546 171.898 92.4917C171.048 92.6289 170.513 92.8346 170.513 92.8346C170.513 92.8346 172.199 91.9706 172.227 91.8609C172.391 91.23 171.459 90.9831 170.211 91.9157C168.977 92.8209 169.772 95.4267 169.772 95.4267Z" fill="#F7A491"/>
<path d="M54.7489 127.985C54.2005 128.287 53.8303 128.548 53.652 128.685C53.6658 128.671 53.6658 128.644 53.6795 128.63C53.8577 128.438 54.4747 127.78 54.4747 127.78C55.2837 127.162 54.8586 126.504 54.1045 126.916C53.3504 127.327 52.9116 127.684 52.9116 127.684C52.9116 127.684 54.2279 126.394 54.2142 126.202C54.2005 125.544 53.2133 125.613 52.3221 126.902C51.5542 128.027 52.6923 129.988 53.0213 130.44C53.3504 131.112 53.94 131.428 53.94 131.428L54.1457 130.152C54.1457 130.152 54.3787 129.192 55.1191 128.863C55.8458 128.52 55.5031 127.574 54.7489 127.985Z" fill="#F7A491"/>
<path d="M172.885 91.4907C172.885 91.4907 174.887 89.8861 175.202 90.5718C175.518 91.2576 175.38 92.7388 175.079 92.629C174.777 92.5193 174.818 91.4633 173.954 91.7513C173.735 91.8199 172.542 92.1902 172.885 91.4907Z" fill="#F7A491"/>
<path d="M207.958 36.6047L136.057 21.2717C132.012 20.4077 129.434 16.4304 130.298 12.3983L131.683 5.92499C132.547 1.87916 136.523 -0.699197 140.554 0.164828L212.456 15.4978C216.5 16.3619 219.078 20.3391 218.214 24.3712L216.829 30.8446C215.979 34.8904 212.003 37.4688 207.958 36.6047Z" fill="#8BC63E"/>
<path d="M195.138 31.2832L201.761 40.3212L203.886 33.6284L195.138 31.2832Z" fill="#8BC63E"/>
<path d="M153.538 10.9586C153.196 12.577 151.427 13.5781 149.603 13.1941C147.78 12.8101 146.573 11.1781 146.93 9.54603C147.272 7.92769 149.041 6.92652 150.865 7.31053C152.688 7.69454 153.895 9.32659 153.538 10.9586Z" fill="white"/>
<path d="M150.248 13.1394L149.055 12.8788C146.765 12.3851 144.503 13.8526 144.009 16.1429L143.543 18.3236L153.045 20.3533L153.511 18.1727C154.005 15.8823 152.538 13.6194 150.248 13.1394Z" fill="white"/>
<path d="M182.003 19.0906C181.331 22.2313 176.244 23.8222 170.636 22.6153C165.028 21.4221 161.025 17.8974 161.697 14.7568C162.368 11.6161 167.455 10.0252 173.063 11.2321C178.685 12.4253 182.675 15.95 182.003 19.0906Z" fill="white"/>
<path d="M172.748 21.5321L169.512 24.5905L177.19 22.7664L176.902 17.8154L172.748 21.5321Z" fill="white"/>
<path d="M196.331 21.0795L197.497 20.5034C197.853 20.3251 198.031 19.9137 197.935 19.5297C197.73 18.7754 197.305 17.5273 196.482 16.5536C196.235 16.2656 195.824 16.1696 195.467 16.3342L193.438 17.3216C193.178 17.4451 193.013 17.6919 192.972 17.9799C192.835 19.1731 192.67 22.4783 194.754 25.2761C197.126 28.458 199.567 30.0626 201.281 30.8443C201.555 30.9677 201.884 30.9403 202.131 30.7483L204.01 29.3494C204.339 29.1025 204.448 28.6637 204.256 28.2934C203.886 27.5528 203.077 26.3596 201.555 25.523C201.24 25.3447 200.856 25.3996 200.595 25.6327L199.896 26.2499C199.608 26.5105 199.183 26.5379 198.868 26.3185C198.182 25.8659 197.017 24.755 195.92 22.1355C195.755 21.7515 195.934 21.2852 196.331 21.0795Z" fill="white"/>
<path d="M125.663 94.3981L114.818 87.8151C113.721 87.1431 113.365 85.7168 114.036 84.6059L120.618 73.7576C121.29 72.6604 122.716 72.3038 123.826 72.9758L134.672 79.5589C135.769 80.2309 136.125 81.6572 135.453 82.7681L128.872 93.6164C128.2 94.7273 126.76 95.0702 125.663 94.3981Z" fill="#8BC63E"/>
<path d="M131.381 85.5381C131.779 85.1267 131.655 84.3449 131.052 83.8238C128.461 81.5197 125.485 79.6957 122.263 78.4065C121.523 78.1185 120.769 78.3653 120.59 78.9139C119.082 83.3575 119.603 81.6843 118.959 84.2626C118.808 84.8661 119.151 85.4832 119.713 85.7027C120.316 85.9358 121.029 85.689 121.303 85.0992C121.454 84.7701 121.605 84.4409 121.756 84.1255C121.934 83.7552 122.414 83.6043 122.839 83.8238C123.95 84.3861 125.005 85.0307 126.02 85.7438C126.404 86.0181 126.5 86.5118 126.253 86.841C126.034 87.129 125.814 87.4033 125.609 87.6913C125.225 88.2125 125.334 88.9393 125.828 89.3645C126.294 89.7622 126.993 89.7759 127.46 89.3782C127.926 88.9531 130.545 86.4021 131.381 85.5381Z" fill="white"/>
<path d="M122.976 80.1341C123.113 80.2164 123.223 80.3398 123.291 80.477L123.662 79.8735L122.894 79.4072L122.524 80.0107C122.688 79.997 122.839 80.0518 122.976 80.1341Z" fill="#8BC63E"/>
<path d="M121.769 80.4221C121.852 80.2849 121.975 80.1752 122.112 80.1066L121.509 79.7363L121.043 80.5044L121.646 80.8747C121.632 80.7238 121.674 80.5729 121.769 80.4221Z" fill="#8BC63E"/>
<path d="M122.057 81.6427C121.92 81.5604 121.811 81.437 121.742 81.2998L121.372 81.9033L122.14 82.3696L122.51 81.7661C122.359 81.7798 122.208 81.725 122.057 81.6427Z" fill="#8BC63E"/>
<path d="M123.415 80.9023C123.415 81.0532 123.374 81.2178 123.291 81.3549C123.209 81.4921 123.086 81.6018 122.949 81.6704L123.552 82.0407L124.018 81.2726L123.415 80.9023Z" fill="#8BC63E"/>
<path d="M122.99 81.1635C122.839 81.4241 122.496 81.5064 122.249 81.3418C121.989 81.191 121.907 80.8481 122.071 80.6012C122.222 80.3406 122.565 80.2583 122.812 80.4229C123.058 80.5875 123.141 80.9167 122.99 81.1635Z" fill="#8BC63E"/>
<path d="M129.818 85.4151C129.489 85.9636 128.776 86.1282 128.228 85.7991C127.679 85.4699 127.515 84.7568 127.844 84.2082C128.173 83.6596 128.886 83.495 129.434 83.8242C129.983 84.1533 130.161 84.8665 129.818 85.4151Z" fill="#8BC63E"/>
<path d="M135.878 44.1887C135.878 44.1887 136.276 41.9395 138.607 40.856C140.691 39.896 142.926 40.9657 143.872 43.0092C144.969 45.3681 144.297 49.0574 140.348 53.8301C134.151 53.7615 130.901 51.8826 129.818 49.5374C128.872 47.5076 129.503 45.0938 131.587 44.1338C133.904 43.0366 135.878 44.1887 135.878 44.1887Z" fill="#F48C7F"/>
<path d="M60.6996 34.0946L46.9199 40.6639C45.2882 41.4319 43.3549 40.7462 42.5734 39.1279L38.8714 31.3653C38.1035 29.7333 38.7891 27.7995 40.407 27.0178L54.1868 20.4485C55.8184 19.6804 57.7517 20.3662 58.5333 21.9845L62.2353 29.747C63.0168 31.3791 62.3176 33.3265 60.6996 34.0946Z" fill="#FAE0B2"/>
<path d="M41.2983 34.8896L38.3503 43.6808L44.9043 38.8395L41.2983 34.8896Z" fill="#FAE0B2"/>
<path d="M46.1658 31.4889L47.9071 30.5975C47.9071 30.5975 49.3194 27.8683 49.1 27.2511C48.8806 26.6339 47.9208 25.5779 48.1813 25.2488C48.4555 24.9333 49.1137 24.4533 49.9501 25.0019C50.5534 25.3996 51.2801 27.594 51.5543 27.6214C51.7188 27.6488 52.7472 27.1688 53.4739 26.7985C53.9537 26.5654 54.5296 26.6065 54.9684 26.9219C55.2563 27.1414 55.366 27.5254 55.2152 27.8683L54.9821 28.3894L55.4894 28.65C55.8733 28.842 56.0241 29.3083 55.8322 29.6786L55.6402 30.0626L55.9693 30.1998C56.3944 30.378 56.5726 30.8855 56.3395 31.2832L56.1613 31.6124L56.2435 31.6672C56.5726 31.9004 56.6686 32.3392 56.4629 32.6821L56.2709 32.9975L51.6366 35.3839C51.1978 35.6033 50.7316 35.7405 50.238 35.7679L48.4693 36.3302C48.2773 36.3851 48.0716 36.3028 47.9894 36.1245L45.9875 32.0238C45.8915 31.8318 45.9601 31.5849 46.1658 31.4889Z" fill="white"/>
<path d="M160.12 53.0346C170.527 50.6757 180.152 53.9398 181.605 60.3308C182.332 63.5263 180.879 66.9001 177.944 69.7802L184.306 78.2559L173.749 72.9483C171.336 74.3609 168.497 75.4992 165.385 76.2124C154.978 78.5713 145.353 75.3072 143.899 68.9162C142.446 62.5114 149.713 55.4072 160.12 53.0346Z" fill="#FAE0B2"/>
<path d="M170.143 64.1437C169.992 67.8604 166.852 70.7542 163.136 70.6033C159.421 70.4525 156.527 67.3118 156.678 63.5951C156.829 59.8785 159.969 56.9847 163.685 57.1355C167.4 57.2864 170.294 60.427 170.143 64.1437Z" fill="#F7CC7F"/>
<path d="M159.777 64.8018C159.695 66.7904 161.244 68.4636 163.232 68.5459C165.22 68.6281 166.893 67.0784 166.975 65.0898L159.777 64.8018Z" fill="#EFEFEF"/>
<path d="M29.1501 82.8369L25.7086 83.5226L26.1336 86.7593L22.7881 87.5822L22.8155 90.7229L20.4023 91.7515L20.9234 92.9721L24.1455 91.6006L24.1181 88.6245L27.6145 87.7605L27.1894 84.5787L30.3019 83.9615L29.1501 82.8369Z" fill="#F48C7F"/>
<path d="M257.963 109.471L257.003 106.097L253.822 106.783L252.726 103.505L249.599 103.78L248.379 101.462L247.2 102.079L248.832 105.179L251.793 104.918L252.931 108.319L256.071 107.647L256.935 110.706L257.963 109.471Z" fill="#F7CC7F"/>
<path d="M29.7123 46.8903L27.7927 47.48L26.5038 44.4902L23.5971 45.0114L22.2671 42.9268L21.2113 43.6125L22.9938 46.3829L25.7497 45.8891L27.0934 49.0024L29.9865 48.1109L29.7123 46.8903Z" fill="#8BC63E"/>
<path d="M100.901 58.9594C100.229 58.4108 98.666 57.9582 97.8845 57.8759C97.1029 57.8073 93.7026 57.8073 93.2638 58.6302C92.825 59.4531 96.39 61.7709 96.5819 62.7309C96.7739 63.6909 94.5115 78.6537 93.8671 81.616C93.5517 83.0835 92.3177 85.8402 91.1385 88.2539C92.825 88.5282 94.868 89.8997 96.1706 90.8734C97.8296 87.2528 99.5161 83.1932 99.7218 81.2732C100.147 77.433 101.559 59.5217 100.901 58.9594Z" fill="#F7A491"/>
<path d="M110.759 33.1626C109.594 33.0666 103.534 37.6885 103.534 37.6885L103.259 38.045C103.259 38.045 111.445 39.4302 111.829 39.1696C112.871 38.4839 111.705 33.2449 110.759 33.1626ZM103.561 37.8256C105.535 36.3856 109.608 34.6301 110.485 34.2598C110.938 35.0964 111.349 37.277 111.225 38.1822C110.252 38.1136 105.947 38.2096 103.561 37.8256Z" fill="#466EB6"/>
<path d="M101.902 29.3221C100.86 26.5106 99.8315 26.6478 99.1048 26.7438C98.3781 26.8398 95.1148 29.1576 95.4165 30.9267C95.7181 32.7097 102.258 37.8938 102.258 37.8938L102.697 37.3864C102.683 37.4001 102.958 32.1336 101.902 29.3221ZM96.4174 30.7622C96.2666 29.8707 98.5289 27.9918 99.2693 27.7449C99.4476 27.7175 99.5847 27.7038 99.7081 27.7449C99.8452 27.7861 100.339 28.0467 100.956 29.6924C101.628 31.489 102.327 35.6583 102.327 37.3315C99.7218 35.1372 96.5819 31.5165 96.4174 30.7622Z" fill="#466EB6"/>
<path d="M102.313 39.0045L102.67 39.1005C103.026 39.1965 103.396 38.9908 103.492 38.6479L103.794 37.6056C103.89 37.249 103.684 36.8787 103.342 36.7827L102.985 36.6867C102.629 36.5907 102.258 36.7964 102.162 37.1393L101.861 38.1816C101.751 38.5382 101.957 38.8948 102.313 39.0045Z" fill="#466EB6"/>
<path d="M108.949 61.9078L86.4082 55.4619C85.1879 55.119 84.4475 53.8847 84.7217 52.6366L88.7117 34.2041L118.067 42.5838L111.445 61.0986C111.171 61.8803 110.074 62.2369 108.949 61.9078Z" fill="#F47458"/>
<path d="M118.15 46.8903L86.2574 37.8523L86.5042 35.7128C86.655 34.4237 87.9164 33.5734 89.1642 33.9436L117.985 42.241C119.014 42.5428 119.631 43.3931 119.329 44.1062L118.15 46.8903Z" fill="#FAE0B2"/>
<path d="M102.788 37.8545L101.549 42.1934L102.156 42.3665L103.394 38.0277L102.788 37.8545Z" fill="#466EB6"/>
<path d="M102.166 42.3529L97.5063 58.6797L98.2711 58.898L102.931 42.5712L102.166 42.3529Z" fill="#466EB6"/>
<path d="M95.0874 58.9321L95.1697 57.9721C94.3881 57.7527 93.4969 57.4235 93.0444 57.2315L92.921 56.5046C92.5097 55.5035 92.0709 56.2166 91.9338 56.4498C91.9338 56.4498 91.9064 57.739 92.0435 57.8898C92.0435 57.8898 93.5655 59.4944 94.2099 60.0979C94.5252 60.3996 95.5536 61.2362 95.5536 61.2362L96.3625 60.1116L95.0874 58.9321Z" fill="#F7A491"/>
</g>
<defs>
<clipPath id="clip0_55_1404">
<rect width="298" height="199" fill="white"/>
</clipPath>
</defs>
</svg>
