<svg width="20" height="21" viewBox="0 0 20 21" fill="none" xmlns="http://www.w3.org/2000/svg">
<g clip-path="url(#clip0_61_1877)">
<path d="M17.2583 16.4557L14.425 13.5879C15.3392 12.4056 15.8352 10.9456 15.8333 9.44259C15.8333 8.10405 15.4423 6.79557 14.7098 5.68261C13.9773 4.56965 12.9361 3.70221 11.7179 3.18997C10.4997 2.67774 9.15927 2.54371 7.86607 2.80485C6.57286 3.06598 5.38497 3.71055 4.45262 4.65704C3.52027 5.60354 2.88534 6.80944 2.6281 8.12226C2.37087 9.43508 2.50289 10.7959 3.00747 12.0325C3.51206 13.2692 4.36654 14.3261 5.46287 15.0698C6.5592 15.8134 7.84813 16.2104 9.16667 16.2104C10.6472 16.2122 12.0854 15.7087 13.25 14.7807L16.075 17.657C16.1525 17.7363 16.2446 17.7992 16.3462 17.8422C16.4477 17.8851 16.5567 17.9072 16.6667 17.9072C16.7767 17.9072 16.8856 17.8851 16.9871 17.8422C17.0887 17.7992 17.1809 17.7363 17.2583 17.657C17.3364 17.5783 17.3984 17.4848 17.4407 17.3817C17.4831 17.2786 17.5048 17.168 17.5048 17.0563C17.5048 16.9447 17.4831 16.8341 17.4407 16.731C17.3984 16.6279 17.3364 16.5343 17.2583 16.4557ZM4.16667 9.44259C4.16667 8.43868 4.45991 7.45732 5.00932 6.6226C5.55873 5.78789 6.33962 5.13731 7.25325 4.75313C8.16688 4.36895 9.17222 4.26843 10.1421 4.46428C11.112 4.66014 12.0029 5.14356 12.7022 5.85343C13.4015 6.5633 13.8777 7.46773 14.0706 8.45234C14.2635 9.43696 14.1645 10.4575 13.7861 11.385C13.4076 12.3125 12.7668 13.1052 11.9445 13.663C11.1223 14.2207 10.1556 14.5184 9.16667 14.5184C7.84059 14.5184 6.56882 13.9836 5.63114 13.0317C4.69345 12.0798 4.16667 10.7888 4.16667 9.44259Z" fill="#A8A8A8"/>
</g>
<defs>
<clipPath id="clip0_61_1877">
<rect width="20" height="20.3033" fill="white" transform="translate(0 0.136719)"/>
</clipPath>
</defs>
</svg>
