<svg width="23" height="22" viewBox="0 0 23 22" fill="none" xmlns="http://www.w3.org/2000/svg">
<path d="M6.61936 17.6C6.18296 17.6 5.75637 17.729 5.39352 17.9708C5.03067 18.2125 4.74786 18.5561 4.58086 18.9581C4.41386 19.3601 4.37016 19.8024 4.4553 20.2292C4.54044 20.656 4.75058 21.048 5.05916 21.3556C5.36774 21.6633 5.76089 21.8728 6.1889 21.9577C6.61691 22.0426 7.06055 21.999 7.46373 21.8325C7.8669 21.666 8.2115 21.384 8.45395 21.0223C8.6964 20.6605 8.82581 20.2351 8.82581 19.8C8.82581 19.2165 8.59334 18.6569 8.17955 18.2444C7.76576 17.8318 7.20454 17.6 6.61936 17.6ZM0 0V2.2H2.20645L6.17806 10.549L4.68871 13.244C4.50621 13.5661 4.41114 13.9301 4.4129 14.3C4.41465 14.8829 4.64768 15.4415 5.06109 15.8537C5.4745 16.2659 6.0347 16.4983 6.61936 16.5H19.8581V14.3H7.08271C7.04641 14.3003 7.01041 14.2934 6.97682 14.2797C6.94322 14.2659 6.9127 14.2457 6.88703 14.2201C6.86136 14.1945 6.84106 14.1641 6.8273 14.1306C6.81354 14.0971 6.80661 14.0612 6.8069 14.025L6.84 13.893L7.8329 12.1H16.0519C16.4461 12.1012 16.8333 11.9967 17.173 11.7974C17.5127 11.598 17.7923 11.3112 17.9826 10.967L21.9321 3.828C22.021 3.66624 22.0666 3.48441 22.0645 3.3C22.0645 3.00826 21.9483 2.72847 21.7414 2.52218C21.5345 2.31589 21.2539 2.2 20.9613 2.2H4.64458L3.60755 0H0ZM17.6516 17.6C17.2152 17.6 16.7886 17.729 16.4258 17.9708C16.0629 18.2125 15.7801 18.5561 15.6131 18.9581C15.4461 19.3601 15.4024 19.8024 15.4876 20.2292C15.5727 20.656 15.7828 21.048 16.0914 21.3556C16.4 21.6633 16.7931 21.8728 17.2212 21.9577C17.6492 22.0426 18.0928 21.999 18.496 21.8325C18.8992 21.666 19.2438 21.384 19.4862 21.0223C19.7287 20.6605 19.8581 20.2351 19.8581 19.8C19.8581 19.2165 19.6256 18.6569 19.2118 18.2444C18.798 17.8318 18.2368 17.6 17.6516 17.6Z" fill="white"/>
</svg>
