<svg width="25" height="24" viewBox="0 0 25 24" fill="none" xmlns="http://www.w3.org/2000/svg">
<path d="M21.58 6.99961C21.4072 6.70023 21.1598 6.45074 20.8618 6.27548C20.5639 6.10022 20.2256 6.00518 19.88 5.99961H7.08L6.5 3.73961C6.4414 3.52145 6.31066 3.32955 6.12908 3.19518C5.94749 3.06081 5.72576 2.99188 5.5 2.99961H3.5C3.23478 2.99961 2.98043 3.10497 2.79289 3.2925C2.60536 3.48004 2.5 3.73439 2.5 3.99961C2.5 4.26483 2.60536 4.51918 2.79289 4.70672C2.98043 4.89425 3.23478 4.99961 3.5 4.99961H4.74L7.5 15.2596C7.5586 15.4778 7.68934 15.6697 7.87092 15.804C8.05251 15.9384 8.27424 16.0073 8.5 15.9996H17.5C17.6847 15.9991 17.8656 15.9474 18.0227 15.8503C18.1798 15.7532 18.3069 15.6145 18.39 15.4496L21.67 8.88961C21.8122 8.59163 21.8783 8.26308 21.8626 7.93329C21.8469 7.60351 21.7498 7.28274 21.58 6.99961Z" fill="#ABABAB"/>
<path d="M8 21C8.82843 21 9.5 20.3284 9.5 19.5C9.5 18.6716 8.82843 18 8 18C7.17157 18 6.5 18.6716 6.5 19.5C6.5 20.3284 7.17157 21 8 21Z" fill="#ABABAB"/>
<path d="M18 21C18.8284 21 19.5 20.3284 19.5 19.5C19.5 18.6716 18.8284 18 18 18C17.1716 18 16.5 18.6716 16.5 19.5C16.5 20.3284 17.1716 21 18 21Z" fill="#ABABAB"/>
</svg>
