<svg width="12" height="12" viewBox="0 0 12 12" fill="none" xmlns="http://www.w3.org/2000/svg">
<path d="M8.77988 10.5001C8.69992 10.5004 8.62105 10.4816 8.54988 10.4451L5.99988 9.1101L3.44988 10.4451C3.36708 10.4886 3.27372 10.5081 3.18042 10.5012C3.08712 10.4943 2.99762 10.4614 2.9221 10.4062C2.84657 10.351 2.78805 10.2757 2.75319 10.1889C2.71833 10.1021 2.70852 10.0072 2.72488 9.9151L3.22488 7.1001L1.16488 5.1001C1.10061 5.03596 1.05502 4.95554 1.033 4.86745C1.01097 4.77936 1.01335 4.68694 1.03988 4.6001C1.06886 4.51124 1.12217 4.43228 1.19376 4.37218C1.26534 4.31208 1.35234 4.27326 1.44488 4.2601L4.29488 3.8451L5.54988 1.2801C5.59082 1.19557 5.65475 1.12427 5.73434 1.07439C5.81392 1.0245 5.90595 0.998047 5.99988 0.998047C6.09381 0.998047 6.18584 1.0245 6.26543 1.07439C6.34501 1.12427 6.40894 1.19557 6.44988 1.2801L7.71988 3.8401L10.5699 4.2551C10.6624 4.26826 10.7494 4.30708 10.821 4.36718C10.8926 4.42728 10.9459 4.50624 10.9749 4.5951C11.0014 4.68194 11.0038 4.77436 10.9818 4.86245C10.9597 4.95054 10.9142 5.03096 10.8499 5.0951L8.78988 7.0951L9.28988 9.9101C9.30773 10.0038 9.29839 10.1007 9.26295 10.1893C9.22751 10.2779 9.16746 10.3545 9.08988 10.4101C8.99934 10.4736 8.89032 10.5052 8.77988 10.5001Z" fill="white"/>
</svg>
