<svg width="22" height="22" viewBox="0 0 22 22" fill="none" xmlns="http://www.w3.org/2000/svg">
<path d="M15.1393 2.75C18.3008 2.75 20.1667 4.56921 20.1667 7.68332H16.2882V7.71509C14.4881 7.71509 13.0289 9.13778 13.0289 10.8928C13.0289 12.6477 14.4881 14.0704 16.2882 14.0704H20.1667V14.3564C20.1667 17.4308 18.3008 19.25 15.1393 19.25H6.86078C3.6993 19.25 1.83337 17.4308 1.83337 14.3564V7.6436C1.83337 4.56921 3.6993 2.75 6.86078 2.75H15.1393ZM19.4823 9.04971C19.8603 9.04971 20.1667 9.34848 20.1667 9.71702V12.0367C20.1623 12.4035 19.8584 12.6997 19.4823 12.704H16.3615C15.4503 12.716 14.6534 12.1077 14.4467 11.2423C14.3432 10.7051 14.4885 10.1508 14.8437 9.72787C15.1989 9.30496 15.7276 9.05674 16.2882 9.04971H19.4823ZM16.7282 10.1222H16.4267C16.2416 10.12 16.0633 10.1903 15.9317 10.3171C15.8 10.444 15.726 10.617 15.726 10.7974C15.7259 11.1761 16.0384 11.4842 16.4267 11.4886H16.7282C17.1152 11.4886 17.4289 11.1827 17.4289 10.8054C17.4289 10.428 17.1152 10.1222 16.7282 10.1222ZM11.3504 6.31692H6.17634C5.79249 6.3169 5.48006 6.61796 5.4756 6.99218C5.4756 7.3708 5.78801 7.67897 6.17634 7.68332H11.3504C11.7374 7.68332 12.0512 7.37744 12.0512 7.00012C12.0512 6.6228 11.7374 6.31692 11.3504 6.31692Z" fill="#37474F"/>
</svg>
