<svg width="23" height="23" viewBox="0 0 23 23" fill="none" xmlns="http://www.w3.org/2000/svg">
<path d="M0 0.766675C0 0.56334 0.0807745 0.368333 0.224554 0.224554C0.368333 0.0807744 0.56334 0 0.766675 0H3.0667C3.23772 4.72448e-05 3.40381 0.0572717 3.53856 0.162573C3.67331 0.267874 3.76899 0.415206 3.81037 0.58114L4.43138 3.0667H22.2336C22.3461 3.0668 22.4573 3.0917 22.5592 3.13961C22.6611 3.18753 22.7511 3.25729 22.823 3.34394C22.8948 3.43058 22.9467 3.532 22.975 3.64097C23.0033 3.74994 23.0072 3.86379 22.9864 3.97444L20.6864 16.2412C20.6535 16.4169 20.5603 16.5756 20.4228 16.6898C20.2854 16.8041 20.1123 16.8667 19.9335 16.8668H6.1334C5.95466 16.8667 5.7816 16.8041 5.64412 16.6898C5.50665 16.5756 5.41341 16.4169 5.38052 16.2412L3.08203 3.99744L2.46869 1.53335H0.766675C0.56334 1.53335 0.368333 1.45258 0.224554 1.3088C0.0807745 1.16502 0 0.97001 0 0.766675ZM7.66675 16.8668C6.85341 16.8668 6.07338 17.1899 5.49827 17.7651C4.92315 18.3402 4.60005 19.1202 4.60005 19.9335C4.60005 20.7469 4.92315 21.5269 5.49827 22.102C6.07338 22.6771 6.85341 23.0002 7.66675 23.0002C8.48009 23.0002 9.26012 22.6771 9.83523 22.102C10.4104 21.5269 10.7334 20.7469 10.7334 19.9335C10.7334 19.1202 10.4104 18.3402 9.83523 17.7651C9.26012 17.1899 8.48009 16.8668 7.66675 16.8668ZM18.4002 16.8668C17.5869 16.8668 16.8068 17.1899 16.2317 17.7651C15.6566 18.3402 15.3335 19.1202 15.3335 19.9335C15.3335 20.7469 15.6566 21.5269 16.2317 22.102C16.8068 22.6771 17.5869 23.0002 18.4002 23.0002C19.2135 23.0002 19.9936 22.6771 20.5687 22.102C21.1438 21.5269 21.4669 20.7469 21.4669 19.9335C21.4669 19.1202 21.1438 18.3402 20.5687 17.7651C19.9936 17.1899 19.2135 16.8668 18.4002 16.8668ZM7.66675 18.4002C8.07342 18.4002 8.46343 18.5617 8.75099 18.8493C9.03855 19.1369 9.2001 19.5269 9.2001 19.9335C9.2001 20.3402 9.03855 20.7302 8.75099 21.0178C8.46343 21.3053 8.07342 21.4669 7.66675 21.4669C7.26008 21.4669 6.87007 21.3053 6.58251 21.0178C6.29495 20.7302 6.1334 20.3402 6.1334 19.9335C6.1334 19.5269 6.29495 19.1369 6.58251 18.8493C6.87007 18.5617 7.26008 18.4002 7.66675 18.4002ZM18.4002 18.4002C18.8069 18.4002 19.1969 18.5617 19.4844 18.8493C19.772 19.1369 19.9335 19.5269 19.9335 19.9335C19.9335 20.3402 19.772 20.7302 19.4844 21.0178C19.1969 21.3053 18.8069 21.4669 18.4002 21.4669C17.9935 21.4669 17.6035 21.3053 17.316 21.0178C17.0284 20.7302 16.8668 20.3402 16.8668 19.9335C16.8668 19.5269 17.0284 19.1369 17.316 18.8493C17.6035 18.5617 17.9935 18.4002 18.4002 18.4002Z" fill="#759744"/>
</svg>
